<?xml version="1.0" standalone="no"?>
<!DOCTYPE svg PUBLIC "-//W3C//DTD SVG 20010904//EN"
 "http://www.w3.org/TR/2001/REC-SVG-20010904/DTD/svg10.dtd">
<svg version="1.0" xmlns="http://www.w3.org/2000/svg"
 width="2650.000000pt" height="816.000000pt" viewBox="0 0 2650.000000 816.000000"
 preserveAspectRatio="xMidYMid meet">
<metadata>
Created by potrace 1.16, written by Peter Selinger 2001-2019
</metadata>
<g transform="translate(0.000000,816.000000) scale(0.100000,-0.100000)"
fill="#000000" stroke="none">
<path d="M7994 7975 c-135 -43 -228 -137 -270 -274 -17 -58 -18 -191 0 -256
41 -155 166 -267 329 -295 81 -15 204 -1 297 32 l65 23 3 183 2 182 -120 0
c-100 0 -120 -2 -120 -15 0 -12 18 -15 105 -15 l105 0 0 -154 0 -153 -42 -16
c-110 -40 -250 -50 -339 -23 -138 42 -233 154 -260 309 -22 122 18 255 105
345 119 125 325 148 477 53 40 -25 50 -27 59 -16 10 12 2 20 -37 45 -26 17
-70 37 -97 45 -60 18 -205 18 -262 0z"/>
<path d="M20035 7966 c-106 -49 -152 -161 -110 -264 31 -72 81 -107 232 -156
132 -44 193 -103 193 -188 -1 -46 -32 -111 -66 -135 -54 -37 -91 -46 -167 -41
-76 5 -124 24 -169 65 -14 14 -31 22 -37 19 -44 -27 62 -100 171 -117 170 -28
300 64 300 211 0 108 -51 160 -215 220 -182 67 -224 109 -215 215 6 68 37 111
102 141 88 41 183 29 264 -32 24 -19 37 -23 45 -15 16 16 -18 49 -78 77 -70
33 -180 33 -250 0z"/>
<path d="M5280 7570 l0 -400 220 0 c189 0 220 2 220 15 0 13 -29 15 -200 15
l-200 0 0 385 c0 378 0 385 -20 385 -20 0 -20 -7 -20 -400z"/>
<path d="M6460 7570 l0 -400 250 0 c216 0 250 2 250 15 0 13 -32 15 -230 15
l-230 0 0 185 0 185 205 0 c176 0 205 2 205 15 0 13 -29 15 -205 15 l-205 0 0
170 0 170 220 0 c189 0 220 2 220 15 0 13 -33 15 -240 15 l-240 0 0 -400z"/>
<path d="M9250 7570 l0 -400 250 0 c216 0 250 2 250 15 0 13 -32 15 -230 15
l-230 0 0 185 0 185 205 0 c176 0 205 2 205 15 0 13 -29 15 -205 15 l-205 0 0
170 0 170 220 0 c189 0 220 2 220 15 0 13 -33 15 -240 15 l-240 0 0 -400z"/>
<path d="M10530 7570 c0 -393 0 -400 20 -400 20 0 20 7 20 376 l0 375 278
-373 c234 -314 282 -374 305 -376 l27 -3 0 400 c0 348 -2 401 -15 401 -13 0
-15 -51 -17 -377 l-3 -376 -283 376 c-239 320 -286 377 -307 377 l-25 0 0
-400z"/>
<path d="M12010 7570 l0 -400 168 0 c111 0 185 5 219 14 203 54 303 198 291
417 -7 110 -41 190 -108 253 -98 91 -184 116 -412 116 l-158 0 0 -400z m335
359 c129 -24 220 -86 270 -186 26 -50 30 -71 33 -158 5 -122 -16 -189 -83
-262 -81 -91 -181 -123 -385 -123 l-130 0 0 370 0 370 118 0 c65 0 145 -5 177
-11z"/>
<path d="M13500 7570 l0 -400 250 0 c216 0 250 2 250 15 0 13 -32 15 -230 15
l-230 0 0 185 0 185 205 0 c176 0 205 2 205 15 0 13 -29 15 -205 15 l-205 0 0
170 0 170 220 0 c189 0 220 2 220 15 0 13 -33 15 -240 15 l-240 0 0 -400z"/>
<path d="M14780 7570 c0 -393 0 -400 20 -400 20 0 20 7 20 376 l0 375 278
-373 c234 -314 282 -374 305 -376 l27 -3 0 400 c0 348 -2 401 -15 401 -13 0
-15 -51 -17 -377 l-3 -376 -283 376 c-239 320 -286 377 -307 377 l-25 0 0
-400z"/>
<path d="M17381 7948 c-5 -13 -82 -189 -170 -393 -89 -203 -161 -373 -161
-377 0 -4 8 -8 18 -8 12 0 29 30 62 108 l46 107 230 3 230 2 44 -110 c33 -82
49 -110 62 -110 10 0 18 3 18 8 0 4 -73 183 -163 397 -140 336 -166 390 -185
393 -15 2 -25 -3 -31 -20z m138 -275 c56 -135 100 -248 98 -250 -2 -2 -98 -2
-214 -1 l-210 3 105 248 c58 136 108 247 112 247 4 0 53 -111 109 -247z"/>
<path d="M18480 7718 c0 -139 5 -284 10 -322 24 -166 125 -250 300 -249 130 0
200 32 257 116 47 70 53 118 53 427 0 233 -2 280 -14 280 -11 0 -15 -52 -18
-292 -5 -315 -8 -330 -61 -405 -46 -65 -110 -93 -214 -93 -95 0 -132 12 -188
61 -76 67 -80 85 -83 427 -3 291 -4 302 -23 302 -18 0 -19 -9 -19 -252z"/>
<path d="M21226 6343 c-3 -4 -16 -8 -27 -10 -12 -2 -34 -12 -49 -23 -16 -11
-33 -20 -39 -20 -7 0 -22 -6 -34 -14 -36 -22 -202 -86 -236 -90 -17 -2 -39 -9
-48 -17 -33 -24 -246 -243 -292 -300 -25 -31 -78 -94 -117 -140 -80 -95 -98
-124 -90 -145 6 -15 29 -15 105 2 43 9 121 38 121 44 0 3 8 6 18 7 38 4 78 17
104 34 14 11 31 19 37 19 6 0 11 4 11 8 0 4 8 8 18 8 39 2 71 14 145 52 l77
41 0 -32 c-1 -25 -8 -37 -32 -52 -55 -34 -84 -100 -68 -153 5 -19 3 -39 -5
-58 -7 -16 -16 -37 -19 -47 -3 -10 -20 -24 -39 -32 -55 -23 -82 -66 -53 -87
15 -10 11 -85 -5 -113 -4 -5 -12 -28 -19 -50 -7 -22 -21 -56 -31 -75 -24 -43
-24 -60 -1 -60 14 0 15 -2 2 -9 -8 -6 -17 -8 -21 -6 -3 3 -14 -17 -24 -43 -48
-135 -57 -158 -65 -173 -5 -9 -12 -34 -16 -55 -10 -50 -9 -44 -23 -79 -19 -45
-57 -146 -105 -280 -24 -66 -51 -133 -60 -150 -9 -16 -16 -34 -16 -38 0 -8
-24 -64 -55 -132 -8 -16 -28 -68 -46 -115 -17 -47 -36 -91 -42 -98 -6 -7 -12
-23 -13 -35 -1 -12 -35 -94 -74 -182 -40 -88 -79 -182 -87 -210 -8 -27 -21
-57 -29 -66 -8 -8 -14 -19 -14 -24 0 -5 -8 -35 -17 -67 -16 -54 -20 -58 -53
-64 -19 -3 -73 -21 -120 -40 -47 -19 -89 -34 -94 -34 -4 0 -29 -17 -56 -37
-33 -27 -59 -60 -85 -111 -37 -70 -38 -74 -25 -113 19 -57 36 -59 81 -10 33
36 62 55 91 60 5 1 32 10 60 20 93 34 189 44 273 30 110 -18 299 -26 355 -16
136 26 203 85 207 182 1 28 3 70 4 95 1 46 -7 80 -24 91 -15 10 -186 -34 -272
-70 -33 -14 -125 -39 -125 -35 0 3 11 26 24 52 13 26 21 53 19 60 -3 7 0 18 5
25 5 7 19 50 31 97 21 81 45 119 77 120 6 0 62 26 125 58 142 72 235 112 259
112 10 0 20 5 22 10 4 12 140 60 171 60 35 0 67 12 61 21 -3 5 -1 9 5 9 5 0
11 -6 13 -12 3 -8 23 -13 49 -14 24 0 78 -4 119 -8 41 -4 104 -9 140 -11 36
-2 78 -9 94 -14 15 -6 32 -9 36 -6 5 3 35 -1 67 -9 64 -15 62 -15 150 -19 35
-1 63 -5 63 -9 0 -3 10 -4 22 0 11 3 19 1 15 -4 -3 -5 3 -27 14 -48 10 -22 19
-48 19 -58 0 -10 4 -26 9 -36 11 -22 26 -58 41 -102 25 -70 34 -88 44 -83 5 3
6 2 3 -4 -5 -8 43 -110 107 -228 9 -16 16 -38 16 -47 0 -9 4 -19 9 -23 5 -3
19 -36 30 -73 12 -37 26 -80 32 -97 6 -16 12 -41 14 -55 2 -14 5 -32 7 -40 3
-8 9 -33 15 -55 20 -73 33 -139 43 -215 6 -41 12 -88 15 -105 5 -27 -2 -38
-67 -102 -97 -96 -128 -123 -144 -123 -7 0 -17 -6 -21 -14 -15 -25 -246 -146
-280 -146 -7 0 -31 -9 -53 -20 -22 -11 -51 -20 -65 -20 -33 0 -115 -39 -115
-54 0 -44 88 -48 225 -11 6 1 29 6 53 10 23 4 42 12 42 17 0 5 6 8 13 6 17 -3
69 12 85 25 8 6 22 12 31 14 38 5 105 43 117 65 7 12 13 18 14 11 0 -12 29 -8
75 12 17 7 45 16 63 20 18 4 36 13 39 21 3 8 12 14 21 14 25 0 112 61 112 79
0 13 2 13 9 2 7 -11 13 -10 33 10 12 13 35 30 49 37 60 31 254 225 319 319 51
75 52 78 45 130 -3 29 -10 53 -14 53 -3 0 -8 12 -9 27 -1 15 -7 32 -12 37 -6
6 -10 16 -10 24 0 13 -41 100 -79 167 -44 77 -76 141 -77 155 0 8 -15 43 -32
78 -17 34 -29 62 -26 62 3 0 -4 12 -15 26 -11 15 -18 30 -15 35 3 5 1 9 -4 9
-12 0 -53 76 -45 84 3 3 1 6 -5 6 -6 0 -14 10 -17 23 -4 12 -12 36 -20 52 -7
17 -23 57 -35 90 -12 33 -30 78 -40 100 -10 22 -25 58 -33 80 -46 125 -80 211
-97 244 -10 21 -17 41 -14 44 3 2 -4 20 -15 38 -12 19 -21 46 -21 60 0 14 -11
48 -25 75 -14 27 -25 54 -25 60 0 16 -50 167 -59 179 -10 12 -41 109 -41 127
-1 7 -9 31 -20 53 -11 22 -19 48 -20 57 0 9 -4 19 -9 22 -7 5 -15 30 -27 81
-1 6 -3 13 -4 18 -1 4 -3 10 -4 15 -1 4 -5 13 -9 19 -9 14 -53 130 -67 177 -5
16 -18 39 -28 50 -10 12 -25 36 -32 54 -7 17 -16 32 -20 32 -4 0 -11 11 -14
25 -4 14 -11 25 -16 25 -6 0 -10 10 -10 22 0 11 -11 36 -26 55 -14 18 -22 33
-19 33 3 0 -6 18 -20 41 -15 22 -24 46 -22 52 2 7 -2 19 -9 27 -7 9 -21 58
-29 110 -20 117 -20 96 -5 215 12 91 12 103 -4 137 -10 20 -29 49 -42 63 -13
14 -24 30 -24 34 0 4 -10 19 -22 32 -31 34 -98 127 -98 137 0 5 -9 18 -20 30
-16 17 -32 22 -69 22 -26 0 -51 -3 -55 -7z m-27 -1128 c25 -55 41 -98 71 -180
47 -132 64 -175 72 -175 3 0 4 -8 1 -19 -3 -10 0 -22 6 -25 6 -4 11 -18 11
-30 0 -13 13 -40 30 -61 29 -36 30 -41 24 -106 -6 -59 -3 -79 21 -144 15 -41
31 -75 37 -75 5 0 6 -5 3 -10 -4 -6 3 -30 14 -53 11 -23 23 -55 27 -72 4 -16
11 -36 17 -43 7 -9 4 -18 -12 -31 -17 -15 -45 -19 -153 -25 -276 -14 -373 -22
-448 -35 -94 -17 -202 -39 -267 -54 -62 -15 -77 -11 -48 13 8 7 12 17 9 22 -3
5 1 17 9 26 29 33 134 219 165 292 11 25 34 78 51 118 26 58 30 76 20 88 -7 9
-8 14 -1 14 6 0 12 -5 14 -11 4 -12 78 129 78 149 0 6 4 12 9 12 5 0 12 10 16
23 7 24 29 83 52 135 8 18 15 41 16 52 1 11 8 22 16 25 12 5 13 8 2 14 -10 6
-9 11 4 25 12 12 13 16 3 16 -8 0 -7 4 5 11 9 5 17 16 17 23 0 7 6 26 14 42 7
16 24 54 37 86 l24 56 13 -36 c6 -21 16 -46 21 -57z"/>
<path d="M5134 6295 c-32 -19 -63 -37 -69 -42 -5 -4 -26 -16 -45 -26 -19 -9
-50 -26 -67 -37 -18 -11 -33 -17 -33 -13 0 3 -9 -2 -21 -13 -12 -10 -29 -19
-38 -19 -9 -1 -26 -6 -38 -13 -14 -8 -24 -9 -28 -2 -11 18 -65 12 -73 -9 -4
-10 -27 -41 -52 -70 -113 -127 -240 -286 -259 -324 -8 -15 -18 -27 -22 -27 -5
0 -23 -21 -40 -47 -18 -27 -36 -50 -39 -53 -9 -7 -63 -100 -58 -101 28 -6 37
-6 32 2 -3 5 1 9 9 9 8 0 25 10 39 23 35 31 62 46 134 73 35 13 96 39 136 57
170 80 209 97 217 97 5 0 11 7 15 15 3 8 13 15 22 15 13 0 16 -7 11 -36 -7
-43 0 -64 22 -65 9 0 4 -5 -11 -11 -28 -10 -38 -28 -17 -28 6 0 -5 -14 -25
-32 -20 -17 -36 -38 -36 -45 0 -7 -4 -13 -9 -13 -4 0 -9 -23 -10 -52 -1 -72
-8 -87 -57 -137 -45 -44 -61 -78 -50 -106 3 -9 2 -13 -4 -10 -6 4 -10 -10 -10
-34 0 -23 -4 -41 -10 -41 -5 0 -10 -9 -10 -19 0 -11 -5 -23 -11 -26 -6 -4 -8
-14 -4 -23 3 -8 2 -18 -3 -21 -5 -3 -23 -42 -41 -86 -18 -44 -36 -84 -40 -90
-4 -5 -18 -41 -31 -80 -12 -38 -26 -74 -30 -80 -3 -5 -13 -30 -20 -55 -8 -25
-20 -54 -27 -65 -7 -11 -13 -29 -13 -40 0 -12 -5 -26 -12 -33 -6 -6 -13 -20
-14 -29 -1 -10 -14 -49 -29 -88 -15 -38 -28 -83 -29 -100 0 -16 -7 -34 -13
-38 -7 -4 -13 -18 -13 -30 0 -12 -7 -35 -15 -51 -8 -15 -15 -36 -15 -45 0 -9
-6 -25 -13 -36 -7 -11 -13 -27 -12 -35 0 -8 -2 -17 -6 -20 -3 -3 -15 -30 -26
-60 -51 -138 -59 -155 -68 -162 -5 -4 -10 -11 -10 -15 -1 -4 -20 -47 -43 -95
-23 -47 -42 -91 -42 -97 0 -6 -3 -11 -7 -11 -8 0 -44 -80 -42 -90 1 -3 -13
-30 -31 -60 -17 -30 -33 -62 -35 -71 -2 -9 -15 -38 -28 -65 -14 -27 -35 -76
-48 -109 -12 -33 -27 -66 -33 -74 -6 -8 -15 -28 -21 -45 -9 -27 -16 -32 -55
-37 -52 -8 -93 -20 -135 -43 -16 -9 -35 -16 -41 -16 -6 0 -19 -9 -29 -20 -10
-11 -24 -20 -32 -20 -7 0 -13 -7 -13 -15 0 -8 -4 -15 -8 -15 -23 0 -78 -165
-68 -204 9 -38 29 -32 88 24 29 27 58 50 65 50 6 0 13 5 15 11 2 5 10 11 18
12 8 2 20 5 25 9 8 5 35 12 85 23 77 17 260 33 260 23 0 -5 19 -8 43 -7 77 2
192 -3 202 -9 26 -16 119 -10 156 10 22 11 39 23 39 27 0 3 11 19 25 34 23 24
26 37 29 121 2 51 5 97 8 102 11 18 -11 51 -36 56 -14 3 -26 1 -26 -5 0 -17
-62 -67 -90 -73 -14 -3 -33 -9 -42 -15 -10 -5 -33 -9 -51 -9 -18 0 -58 -4 -88
-9 -96 -17 -139 -19 -139 -9 0 5 12 35 26 66 15 31 27 62 28 67 4 15 27 68 37
85 5 8 12 22 15 30 38 107 50 125 99 152 28 15 62 32 78 38 15 7 27 19 27 27
0 11 7 14 24 9 15 -4 28 0 36 9 7 8 28 17 49 21 38 7 91 33 91 45 0 4 9 5 20
2 12 -3 22 1 26 11 3 9 10 14 15 11 4 -3 25 2 46 11 21 9 43 18 48 19 6 0 21
6 35 12 14 6 41 14 60 18 19 4 41 12 48 17 6 6 12 8 12 5 0 -3 17 -1 38 3 20
5 60 12 87 15 28 4 64 13 82 20 28 12 42 11 110 -6 43 -11 85 -20 93 -20 8 -1
29 -5 46 -10 17 -5 40 -11 50 -14 10 -2 47 -11 82 -20 34 -9 67 -13 74 -9 7 4
8 3 4 -4 -9 -15 36 -26 73 -19 26 5 31 2 46 -30 10 -20 30 -57 46 -82 16 -24
29 -53 29 -63 0 -10 4 -18 8 -18 8 0 54 -102 58 -129 2 -8 6 -17 11 -20 9 -7
18 -25 63 -126 18 -38 34 -81 36 -94 3 -13 12 -37 20 -53 9 -17 17 -40 18 -52
3 -21 10 -41 26 -81 23 -57 43 -112 44 -125 2 -8 5 -22 8 -30 19 -48 39 -120
44 -154 3 -22 10 -48 15 -57 5 -10 9 -25 9 -35 0 -9 8 -23 18 -30 14 -12 15
-13 1 -8 -15 5 -16 0 -4 -58 25 -121 27 -114 -47 -187 -101 -101 -147 -135
-223 -170 -104 -48 -139 -65 -145 -71 -3 -3 -12 -6 -20 -8 -8 -2 -28 -9 -45
-17 -16 -7 -42 -16 -57 -20 -34 -9 -72 -49 -65 -69 8 -20 77 -22 95 -4 7 7 18
13 25 13 29 2 88 18 93 26 3 5 11 9 19 9 8 0 26 5 42 12 15 6 33 12 38 13 6 2
26 12 45 24 29 18 144 78 220 116 11 5 20 13 20 17 0 5 11 8 24 8 13 0 29 7
36 15 7 8 45 31 86 50 41 20 74 40 74 45 0 6 7 10 15 10 8 0 15 5 15 10 0 6 9
10 20 10 11 0 25 9 32 20 7 11 16 20 20 20 15 0 87 55 88 67 0 7 10 18 22 24
12 6 31 23 44 38 12 14 34 40 48 56 14 17 26 35 26 40 0 6 14 26 30 45 29 34
40 84 22 105 -4 6 -14 28 -21 50 -7 22 -36 97 -63 167 -47 119 -52 128 -84
138 -27 9 -34 17 -35 38 0 15 -3 36 -6 47 -2 11 -7 32 -10 48 -3 15 -10 27
-15 27 -5 0 -7 4 -4 9 8 13 -5 72 -14 66 -4 -3 -11 2 -14 11 -4 9 -9 14 -12
11 -4 -3 -13 1 -22 9 -11 11 -12 18 -3 27 16 16 14 52 -4 67 -8 7 -20 31 -27
54 -6 22 -18 50 -25 61 -7 11 -13 26 -13 33 0 8 -9 26 -19 40 -10 15 -20 32
-20 37 -1 6 -9 19 -17 30 -8 11 -14 22 -12 25 2 3 -6 19 -17 35 -12 17 -26 41
-32 55 -34 77 -43 99 -43 105 0 4 -9 20 -21 36 -11 16 -17 34 -13 40 5 8 3 9
-6 4 -10 -6 -12 -4 -7 7 3 9 0 24 -7 34 -7 11 -23 48 -35 84 -13 36 -29 79
-36 95 -11 25 -25 65 -30 85 -1 3 -7 18 -13 33 -7 16 -12 37 -12 48 0 10 -6
19 -12 19 -9 0 -8 4 2 10 14 9 7 14 -13 11 -5 -1 -6 3 -3 8 6 9 -20 90 -49
156 -18 42 -75 176 -84 200 -5 11 -18 41 -30 68 -11 26 -21 53 -21 59 0 6 -8
30 -18 52 -11 23 -26 64 -34 91 -51 161 -118 336 -138 355 -6 6 -13 29 -15 55
-1 11 -21 61 -45 110 -43 88 -43 92 -45 200 -1 126 -3 132 -56 238 -21 43 -39
84 -39 92 0 8 -4 15 -10 15 -5 0 -10 6 -10 13 0 22 -48 115 -67 129 -10 7 -23
22 -28 32 -20 36 -47 36 -111 1z m-78 -1233 c10 -26 19 -49 19 -52 1 -3 9 -19
18 -37 9 -18 17 -39 17 -48 0 -8 5 -15 10 -15 6 0 10 -6 10 -14 0 -8 14 -40
31 -70 16 -31 28 -56 25 -56 -3 0 4 -19 17 -42 17 -34 22 -62 24 -136 2 -64 8
-104 20 -130 10 -20 18 -39 19 -42 2 -11 16 -46 26 -64 38 -71 95 -164 108
-176 3 -3 12 -18 20 -35 21 -43 24 -51 16 -44 -4 4 -28 2 -54 -3 -64 -12 -190
-21 -292 -21 -51 0 -88 -4 -92 -11 -5 -6 -8 -7 -8 -1 0 10 -90 10 -160 1 -19
-3 -49 -7 -66 -9 -16 -2 -40 -10 -53 -16 -12 -7 -25 -10 -28 -7 -6 5 -145 -44
-153 -54 -3 -4 -14 -9 -26 -12 -21 -5 -21 -5 -2 33 10 21 18 42 18 48 0 5 4
11 9 13 5 2 11 10 13 18 2 8 13 29 26 47 12 17 22 36 22 41 0 11 42 94 51 102
11 9 40 70 33 70 -4 0 -1 7 6 15 7 8 10 15 6 15 -3 0 5 18 19 40 14 22 25 43
25 48 0 4 8 19 17 32 10 14 19 33 20 43 2 11 10 28 18 40 8 12 15 29 15 38 0
9 9 24 20 34 11 10 17 21 15 26 -3 4 -1 10 4 13 5 3 12 22 16 42 3 20 13 48
22 61 9 13 13 26 10 30 -3 3 2 22 12 42 11 20 20 41 20 46 1 6 12 33 25 60 13
28 33 73 46 102 13 29 28 49 34 47 7 -3 21 -26 32 -52z"/>
<path d="M11187 6273 c-2 -1 -36 -4 -75 -4 -40 -1 -70 -4 -68 -8 3 -4 -7 -7
-22 -8 -35 -1 -151 -23 -177 -33 -29 -11 -106 -32 -140 -37 -16 -3 -39 -10
-50 -16 -11 -6 -25 -10 -31 -9 -6 1 -31 -4 -57 -12 -40 -12 -48 -12 -58 0 -6
8 -8 14 -3 14 5 0 -2 8 -16 17 -28 20 -85 26 -110 13 -10 -5 -37 -12 -60 -15
-23 -3 -46 -7 -50 -10 -4 -3 -41 -8 -81 -11 -41 -3 -77 -11 -80 -16 -4 -6 -11
-8 -17 -4 -24 14 -220 -56 -238 -85 -3 -6 3 -20 15 -32 13 -15 19 -33 17 -52
-1 -17 1 -38 6 -47 10 -20 77 -36 87 -21 3 6 15 13 26 17 16 4 21 1 22 -12 2
-19 32 -202 40 -237 2 -11 6 -36 8 -55 2 -19 6 -44 8 -55 3 -12 8 -52 12 -90
3 -38 8 -72 11 -76 2 -4 6 -49 9 -100 3 -52 7 -116 10 -144 7 -61 16 -185 16
-205 -1 -8 -1 -60 0 -115 1 -402 4 -505 12 -505 6 0 6 -5 1 -12 -5 -7 -8 -26
-6 -43 1 -16 3 -60 3 -97 1 -52 4 -68 15 -68 15 0 19 -26 5 -34 -8 -6 -8 -19
4 -171 4 -44 9 -141 11 -215 2 -74 4 -146 5 -160 1 -14 -2 -74 -5 -135 -14
-260 -23 -429 -30 -580 -2 -44 -7 -132 -11 -195 -4 -63 -9 -149 -10 -190 -2
-62 -10 -134 -28 -230 -1 -8 -5 -20 -9 -25 -6 -10 -20 -76 -20 -92 0 -5 -4
-14 -10 -20 -6 -7 -12 -42 -14 -77 -4 -57 -2 -64 14 -60 9 3 58 58 107 122 89
115 207 239 275 290 19 14 53 44 75 67 22 22 58 54 80 70 21 17 48 38 58 48
10 10 33 25 51 32 18 8 38 21 46 29 7 9 18 16 26 16 16 0 74 36 119 73 18 15
37 27 43 27 6 0 17 8 24 18 14 18 21 23 100 70 27 16 45 32 41 36 -4 4 0 4 10
0 10 -3 17 -1 17 5 0 7 17 20 38 29 20 10 56 30 79 45 24 15 46 27 50 27 5 1
24 14 43 30 19 17 40 30 46 30 16 0 136 80 152 102 7 10 19 18 26 18 7 0 25
11 39 24 14 13 40 34 59 46 18 13 48 38 66 57 17 18 32 30 32 27 0 -3 13 7 28
22 15 16 43 40 61 54 18 14 38 30 45 37 48 48 194 204 252 269 132 146 151
169 177 209 47 70 61 90 77 102 9 6 27 33 40 60 14 26 38 66 55 88 17 22 41
60 54 85 13 25 32 54 42 66 11 11 19 26 19 32 0 7 11 29 23 50 13 20 32 55 41
77 10 22 22 47 27 55 5 8 12 22 15 30 4 8 14 33 24 55 63 141 84 202 104 305
1 8 5 22 8 30 4 8 9 38 12 65 3 28 7 64 10 80 6 31 18 145 19 180 3 66 -16
227 -27 231 -7 3 -12 15 -11 27 2 26 -31 136 -47 155 -13 15 -27 38 -53 88 -9
18 -29 43 -45 58 -16 14 -41 43 -55 64 -14 21 -47 57 -73 79 -64 55 -180 143
-188 143 -3 0 -25 14 -49 31 -24 17 -48 28 -54 25 -5 -4 -13 0 -18 8 -9 15
-83 49 -91 41 -2 -2 -12 0 -22 5 -9 5 -30 12 -46 15 -42 9 -59 13 -59 16 0 2
-20 6 -75 14 -19 3 -42 8 -50 11 -8 3 -31 8 -50 10 -19 3 -62 9 -95 15 -153
28 -455 45 -499 29 -10 -3 -38 -3 -62 0 -24 4 -45 5 -47 3z m188 -247 c64 -17
111 -41 213 -110 45 -31 85 -56 88 -56 6 0 67 -42 74 -52 3 -4 23 -19 45 -34
22 -15 46 -35 53 -45 7 -11 19 -19 27 -19 8 0 12 -6 9 -13 -2 -7 15 -31 38
-54 59 -56 108 -111 140 -158 15 -22 39 -52 53 -67 14 -15 26 -31 27 -35 0 -5
18 -44 38 -88 35 -75 48 -115 55 -168 1 -12 8 -59 14 -104 7 -45 12 -99 11
-120 0 -21 2 -69 5 -108 8 -104 8 -158 0 -176 -3 -10 -2 -19 2 -22 9 -6 -12
-208 -25 -237 -6 -15 -9 -46 -11 -128 -1 -37 -8 -50 -46 -89 -25 -25 -45 -49
-45 -54 0 -5 -6 -9 -14 -9 -7 0 -22 -12 -32 -27 -9 -16 -46 -56 -80 -90 -34
-35 -61 -63 -59 -63 2 0 -24 -26 -58 -57 -34 -32 -63 -61 -65 -65 -2 -4 -26
-23 -53 -43 -30 -21 -47 -40 -43 -47 4 -6 3 -8 -4 -4 -6 3 -17 -2 -24 -12 -7
-9 -44 -44 -83 -76 -38 -32 -80 -66 -92 -77 -14 -12 -20 -25 -17 -36 5 -15 4
-16 -5 -3 -10 13 -13 13 -26 -4 -8 -10 -12 -23 -9 -27 3 -5 -1 -6 -9 -3 -9 3
-41 -20 -83 -60 -38 -36 -75 -66 -83 -66 -7 0 -36 -22 -63 -50 -26 -27 -68
-63 -93 -80 -24 -17 -50 -39 -57 -49 -7 -10 -44 -40 -81 -66 -38 -26 -71 -54
-74 -61 -3 -7 -13 -16 -24 -19 -11 -4 -17 -11 -13 -16 3 -5 2 -8 -3 -7 -14 4
-57 -23 -105 -68 -26 -24 -51 -44 -57 -44 -5 0 -26 -17 -47 -37 -21 -21 -35
-33 -31 -27 3 6 9 29 12 50 3 22 7 50 9 64 24 157 32 360 15 360 -5 0 -9 4 -9
10 0 5 6 7 13 4 10 -3 12 26 10 143 -2 82 -3 177 -3 213 2 148 0 189 -15 369
-2 35 -7 116 -11 180 -3 64 -7 139 -9 166 -2 28 -4 78 -4 113 -1 41 -6 62 -14
62 -8 0 -9 3 -1 8 5 4 10 24 9 45 -1 20 2 37 6 37 4 0 3 15 -2 33 -5 17 -9 46
-9 62 1 111 -1 136 -9 159 -6 15 -7 28 -1 31 5 3 7 13 5 23 -1 9 -6 39 -9 66
-4 27 -9 53 -12 58 -3 4 0 8 6 8 6 0 8 5 3 12 -4 7 -6 80 -4 163 5 201 3 479
-4 591 l-5 91 48 18 c26 10 54 19 62 20 8 1 22 5 30 8 22 10 143 38 160 39 8
0 32 4 52 9 21 5 97 12 170 15 73 3 135 7 137 10 8 8 46 4 96 -10z"/>
<path d="M14998 6175 c-3 -3 -34 -8 -69 -10 -67 -4 -108 -10 -149 -20 -14 -3
-90 -8 -170 -10 -89 -2 -146 -8 -148 -14 -2 -6 -8 -11 -13 -11 -6 0 -7 5 -3
11 5 8 0 10 -17 6 -13 -3 -51 -9 -84 -12 -33 -4 -73 -13 -89 -21 -16 -8 -36
-14 -45 -14 -9 0 -34 -16 -55 -36 -21 -19 -48 -40 -60 -45 -44 -19 -92 -51
-112 -74 -12 -13 -24 -21 -28 -18 -5 6 -168 -120 -200 -156 -11 -12 -23 -21
-28 -21 -10 0 -123 -91 -123 -99 1 -3 -15 -19 -35 -36 -80 -67 -205 -228 -194
-248 4 -6 4 -9 -1 -5 -4 4 -21 -21 -37 -55 -16 -34 -33 -63 -38 -65 -5 -2 -12
-19 -16 -38 -3 -19 -10 -34 -15 -34 -5 0 -9 -6 -9 -13 0 -7 -8 -28 -18 -47
-30 -55 -58 -173 -44 -178 7 -2 12 -11 11 -20 0 -11 -2 -12 -6 -4 -2 6 -9 12
-14 12 -6 0 -8 -4 -5 -9 4 -5 1 -11 -4 -13 -6 -2 -13 -17 -16 -33 -2 -17 -13
-68 -23 -115 -30 -136 -41 -203 -41 -253 0 -25 -4 -48 -10 -52 -5 -3 -7 -12
-4 -19 3 -8 1 -40 -5 -72 -6 -33 -13 -75 -16 -94 -3 -19 -8 -43 -11 -52 -3
-11 0 -18 8 -18 9 0 9 -3 2 -8 -16 -10 -23 -63 -25 -182 -1 -68 3 -106 10
-108 7 -2 8 -9 1 -22 -7 -13 -7 -21 0 -25 6 -4 7 -13 2 -22 -8 -14 2 -81 18
-113 4 -8 6 -25 4 -36 -5 -32 62 -227 84 -244 10 -9 22 -29 26 -45 7 -28 137
-165 157 -165 4 0 16 -8 26 -19 10 -10 77 -49 148 -86 72 -37 148 -80 169 -96
22 -16 44 -29 49 -29 6 0 29 -16 53 -35 23 -19 47 -35 52 -35 5 0 17 -9 28
-21 10 -11 32 -27 49 -35 16 -8 44 -23 61 -34 20 -13 54 -21 95 -24 35 -2 69
-5 74 -7 9 -2 72 6 140 17 103 18 128 24 138 33 7 5 35 12 62 16 28 4 55 11
60 15 14 9 98 34 109 31 4 -1 14 6 22 16 7 10 14 14 14 9 0 -4 11 -1 25 8 13
9 31 16 39 16 7 0 16 6 19 13 2 6 21 18 42 26 20 7 56 26 80 42 24 16 48 29
54 29 6 0 11 4 11 10 0 5 11 12 25 16 14 3 25 10 25 15 0 5 6 9 14 9 7 0 19 7
26 15 7 8 20 15 30 15 10 0 21 7 24 15 3 9 21 22 39 30 18 7 61 34 94 59 33
25 63 46 67 46 3 0 30 25 60 55 29 30 58 55 64 55 5 0 32 20 58 45 27 25 55
45 62 45 7 0 11 4 7 9 -3 6 4 15 16 21 19 11 129 116 129 125 0 7 113 115 121
115 5 0 11 11 15 25 3 14 11 25 16 25 5 0 21 9 35 20 14 11 20 20 13 20 -7 0
-1 9 13 20 14 12 36 39 48 60 13 22 26 40 29 40 4 0 22 22 41 50 19 27 38 50
42 50 5 0 6 4 3 9 -3 5 1 11 9 15 8 3 15 12 15 21 0 8 5 15 10 15 6 0 10 7 10
15 0 9 7 18 15 21 8 4 15 11 15 16 0 6 16 36 35 68 19 32 35 65 35 73 0 8 3
17 8 19 15 7 72 138 59 138 -9 0 -9 2 0 8 6 4 15 21 19 37 4 17 11 35 15 41 5
6 10 24 12 40 2 17 6 34 9 39 8 13 2 330 -6 375 -11 54 -22 134 -29 210 -2 19
-8 44 -14 55 -6 11 -12 25 -13 30 -15 67 -35 126 -61 181 -16 33 -30 69 -32
80 -4 26 -22 58 -63 111 -19 25 -34 49 -34 54 0 14 -81 92 -122 118 -21 12
-41 28 -45 34 -10 15 -173 100 -173 90 0 -4 -5 -2 -12 5 -7 7 -24 12 -38 12
-14 0 -30 4 -36 10 -5 5 -24 12 -40 13 -17 2 -46 11 -64 21 -18 9 -46 16 -62
16 -16 0 -46 9 -68 20 -22 11 -52 20 -68 20 -17 0 -43 7 -58 15 -16 8 -45 17
-64 21 -19 3 -45 10 -57 16 -17 8 -26 8 -39 -3 -14 -11 -18 -11 -28 2 -6 9
-28 19 -49 23 -21 4 -44 9 -51 12 -7 2 -15 2 -18 -1z m-378 -409 c111 -13 207
-29 217 -38 6 -5 17 -8 25 -7 7 1 26 -3 41 -9 16 -7 36 -12 46 -12 10 0 37 -6
59 -14 22 -8 42 -12 45 -10 2 2 10 -2 17 -11 7 -8 17 -15 23 -15 5 0 26 -12
45 -27 20 -16 43 -32 53 -38 23 -13 135 -113 226 -200 41 -39 96 -107 125
-154 29 -46 63 -98 74 -116 12 -18 25 -44 29 -56 4 -13 20 -49 35 -79 15 -30
31 -73 35 -95 4 -22 11 -45 15 -50 17 -21 107 -360 114 -429 3 -33 0 -59 -10
-79 -17 -31 -23 -54 -29 -102 -2 -16 -4 -30 -5 -30 -1 0 -3 -7 -5 -15 -9 -47
-41 -139 -57 -162 -10 -14 -18 -29 -18 -33 0 -3 -9 -27 -21 -53 -47 -108 -64
-155 -61 -164 1 -5 -2 -8 -7 -8 -7 0 -22 -36 -25 -62 -2 -12 -16 -22 -39 -25
-30 -4 -77 -24 -77 -32 0 -6 -35 -25 -90 -49 -14 -6 -45 -20 -70 -30 -25 -11
-69 -28 -97 -37 -29 -10 -50 -21 -47 -26 3 -5 2 -9 -3 -10 -28 -2 -47 -9 -61
-22 -18 -15 -81 -47 -104 -51 -7 -2 -26 -8 -41 -14 -16 -7 -31 -12 -35 -12 -4
-1 -25 -9 -47 -20 -22 -11 -48 -19 -57 -20 -9 0 -43 -7 -75 -15 -84 -23 -132
-28 -146 -17 -7 5 -27 13 -44 17 -18 3 -33 10 -33 13 0 4 -19 15 -43 26 -23
10 -50 22 -59 27 -10 5 -25 9 -33 9 -8 0 -15 5 -15 11 0 7 -10 9 -27 5 -17 -4
-23 -3 -15 2 16 11 -94 56 -110 45 -7 -3 -8 -1 -4 5 7 11 -26 34 -56 39 -10 2
-52 21 -94 43 -42 23 -79 39 -81 36 -3 -3 -19 4 -34 15 -16 11 -29 18 -29 15
0 -2 -58 24 -130 60 -71 35 -133 64 -138 64 -5 0 -19 11 -32 25 -13 14 -29 25
-35 25 -16 0 -35 44 -35 81 0 17 -4 60 -10 97 -5 37 -14 99 -20 137 -6 39 -13
88 -15 110 -3 22 -10 56 -15 75 -9 39 -26 123 -37 185 -11 71 -7 159 11 215
10 30 19 62 20 70 2 8 10 33 20 55 18 41 31 100 40 170 14 119 53 272 76 300
5 6 11 21 13 33 2 12 19 39 38 60 19 20 53 59 75 87 64 82 102 119 126 122 13
2 32 7 43 12 11 5 46 21 78 35 32 14 63 26 70 26 6 0 23 9 37 20 14 11 41 20
61 20 23 0 39 6 43 15 3 8 17 15 30 15 14 0 35 5 48 10 48 22 204 30 318 16z"/>
<path d="M17493 6155 c-28 -5 -55 -13 -59 -17 -4 -5 -17 -8 -28 -8 -20 0 -90
-21 -131 -39 -106 -48 -144 -68 -165 -90 -14 -15 -24 -24 -23 -22 1 2 -2 12
-8 22 -11 22 -32 24 -51 7 -7 -7 -40 -33 -73 -58 -33 -24 -77 -61 -98 -82 -21
-21 -42 -38 -45 -38 -4 0 -13 -9 -20 -20 -7 -11 -18 -20 -25 -20 -6 0 -21 -13
-32 -30 -11 -16 -30 -34 -42 -41 -13 -7 -25 -20 -29 -31 -3 -10 -9 -18 -14
-18 -14 0 -70 -102 -63 -113 3 -6 1 -7 -4 -4 -10 6 -40 -20 -32 -27 12 -11 49
-16 49 -7 0 6 5 11 11 11 6 0 8 -7 5 -16 -5 -13 -1 -15 24 -12 16 3 30 0 30
-5 0 -5 11 -6 24 -3 14 3 27 2 30 -3 8 -12 225 -5 260 9 15 5 31 8 36 5 5 -3
11 -1 15 5 3 5 11 10 16 10 6 0 7 -6 2 -12 -4 -7 -8 -15 -9 -18 0 -3 -4 -14
-8 -25 -48 -128 -66 -190 -66 -228 0 -19 -4 -37 -9 -39 -5 -1 -12 -25 -15 -53
-11 -82 -27 -178 -30 -184 -2 -3 -7 -31 -10 -62 -3 -31 -11 -80 -17 -110 -5
-30 -13 -74 -16 -99 -3 -25 -10 -53 -15 -63 -5 -11 -11 -48 -13 -84 -1 -37 -8
-68 -14 -73 -7 -4 -15 -34 -17 -66 -2 -32 -6 -79 -7 -104 -2 -25 -5 -47 -6
-50 -8 -17 -23 -207 -22 -285 1 -104 11 -258 21 -335 6 -47 13 -111 15 -142 2
-32 7 -63 12 -70 4 -7 8 -34 9 -60 1 -25 5 -51 9 -57 7 -13 16 -86 19 -151 0
-25 5 -48 9 -51 5 -3 10 -30 11 -59 2 -30 8 -56 14 -58 6 -2 9 -9 7 -15 -7
-19 11 -146 30 -212 10 -33 21 -76 25 -95 5 -19 23 -71 41 -115 17 -44 39 -98
48 -120 27 -68 36 -78 60 -70 11 3 21 13 21 21 0 8 4 14 10 14 5 0 17 15 25
32 17 36 59 107 72 123 36 43 52 69 47 76 -3 5 6 13 20 19 14 5 28 20 31 33 4
14 17 30 31 37 13 8 24 17 24 22 0 5 11 24 25 42 14 18 22 36 18 39 -3 4 -2 7
4 7 17 0 63 48 135 141 83 107 96 133 78 154 -17 21 -60 105 -60 119 0 6 -12
35 -25 65 -14 30 -27 61 -28 70 -1 9 -6 21 -9 27 -4 6 -19 44 -34 85 -37 103
-51 121 -91 115 -18 -3 -36 1 -41 7 -11 13 -19 93 -11 101 8 8 1 247 -10 295
-26 119 -26 119 16 130 41 11 95 20 153 26 19 1 76 8 125 14 119 16 126 12
270 -112 24 -22 43 -42 42 -45 -1 -4 7 -18 18 -31 11 -13 32 -38 46 -55 14
-17 46 -63 71 -101 25 -39 53 -76 62 -84 9 -7 16 -20 16 -28 0 -8 15 -30 34
-48 19 -18 32 -35 30 -38 -2 -2 11 -21 31 -42 19 -21 37 -47 41 -57 3 -10 9
-18 15 -18 5 0 20 -17 33 -37 13 -21 36 -50 50 -65 14 -15 26 -31 26 -36 0 -5
11 -17 24 -28 14 -10 23 -21 21 -24 -2 -3 28 -44 67 -90 104 -125 126 -155
130 -169 2 -7 18 -30 36 -51 19 -21 32 -40 30 -42 -1 -2 16 -21 40 -42 23 -21
42 -44 42 -52 0 -7 9 -19 20 -27 11 -8 18 -16 15 -19 -3 -3 8 -18 23 -34 16
-16 31 -34 33 -40 4 -11 99 -122 152 -177 16 -17 65 -71 109 -121 118 -132
356 -366 547 -536 40 -36 85 -76 100 -90 15 -14 51 -45 81 -69 30 -25 66 -55
80 -67 14 -13 40 -37 58 -54 18 -16 39 -30 47 -30 8 0 15 -6 15 -12 0 -7 25
-31 55 -53 30 -22 65 -48 77 -58 11 -9 24 -17 28 -17 4 0 25 -16 46 -35 22
-19 45 -35 51 -35 7 0 25 -13 39 -29 15 -17 39 -33 54 -36 16 -3 31 -13 34
-21 3 -8 12 -14 21 -14 8 0 15 -4 15 -10 0 -5 6 -10 14 -10 7 0 30 -13 51 -30
21 -16 46 -30 56 -30 11 0 19 -3 19 -8 0 -6 18 -15 75 -37 11 -5 25 -9 30 -10
6 -2 39 -14 75 -28 53 -21 119 -38 145 -38 2 0 24 -7 47 -15 48 -17 77 -12
128 19 19 12 38 21 42 20 4 -2 12 6 18 17 6 11 15 20 21 20 5 0 15 5 22 10 43
36 109 81 153 103 29 15 59 33 67 41 8 9 40 26 71 40 31 14 59 32 62 41 3 8
12 15 20 15 8 0 22 8 32 18 10 9 31 24 47 32 17 8 40 23 53 34 12 11 22 16 22
12 0 -8 64 35 166 111 40 29 76 53 81 53 16 0 44 36 36 45 -5 4 -2 5 4 1 18
-10 203 126 203 149 0 9 6 12 16 8 10 -4 25 4 40 21 14 14 29 26 35 26 18 0
68 43 62 53 -4 6 1 8 11 4 11 -4 34 3 59 17 23 13 77 36 120 51 58 21 77 32
75 44 -3 18 -77 28 -107 15 -9 -4 -19 -7 -23 -6 -3 1 -12 -5 -18 -13 -7 -8
-23 -15 -36 -15 -25 0 -141 -37 -159 -50 -5 -4 -26 -11 -45 -15 -19 -4 -48
-13 -65 -20 -86 -35 -142 -55 -158 -55 -10 0 -29 -7 -42 -16 -14 -9 -25 -14
-25 -10 0 3 -35 -12 -77 -34 -76 -38 -168 -79 -178 -79 -3 0 -18 -7 -33 -15
-42 -24 -102 -46 -123 -46 -11 0 -19 -5 -19 -11 0 -5 -4 -8 -9 -5 -5 3 -31 0
-57 -8 -156 -46 -397 -69 -549 -52 -96 10 -244 53 -317 92 -14 8 -31 14 -37
14 -7 0 -23 8 -38 17 -14 10 -32 18 -40 19 -28 4 -216 136 -252 177 -8 9 -18
17 -22 17 -4 0 -26 18 -49 39 -24 22 -55 45 -69 52 -14 8 -47 33 -74 57 -26
24 -52 40 -57 37 -6 -3 -10 -2 -10 3 0 11 -79 92 -89 92 -4 0 -30 21 -57 48
-55 53 -144 128 -159 133 -5 2 -9 10 -7 17 2 6 -1 12 -6 12 -15 0 -532 521
-532 536 0 3 -15 20 -32 37 -18 18 -49 52 -68 77 -19 24 -45 54 -56 66 -12 12
-32 37 -45 56 -13 18 -29 36 -36 41 -6 4 -28 34 -49 67 -20 32 -42 61 -50 64
-8 3 -14 12 -14 19 0 8 -9 22 -20 32 -11 10 -20 24 -20 30 0 7 -11 20 -25 29
-14 9 -25 24 -25 33 0 9 -15 34 -33 57 -18 23 -41 58 -52 79 -11 20 -22 37
-26 37 -4 0 -12 13 -19 29 -6 16 -18 32 -26 35 -8 3 -14 14 -14 24 0 10 -14
32 -30 49 -17 17 -37 46 -45 66 -8 19 -37 70 -65 114 -27 43 -50 82 -50 88 0
5 -11 19 -24 30 -13 11 -33 39 -45 63 -21 41 -39 67 -71 101 -8 9 -25 30 -37
47 l-21 30 46 24 c26 14 54 31 62 40 8 8 26 21 40 28 50 25 70 39 89 60 10 12
22 22 27 22 5 0 28 15 50 33 23 17 52 39 65 47 12 8 31 23 41 33 10 9 18 15
18 12 0 -3 14 9 30 27 17 17 30 28 30 24 0 -4 6 -2 13 3 40 33 144 129 231
217 56 55 106 103 111 105 6 2 28 27 50 54 22 28 47 57 56 65 29 27 167 216
189 258 19 37 20 43 7 64 -8 13 -18 41 -22 63 -4 22 -18 65 -32 95 -14 30 -26
60 -27 65 -2 6 -10 26 -19 45 -28 62 -49 134 -54 183 -4 36 -11 52 -29 64 -21
13 -27 13 -41 2 -9 -8 -14 -9 -10 -2 5 7 -3 13 -20 17 -48 9 -287 9 -378 0
-131 -13 -218 -24 -235 -31 -15 -6 -81 -14 -113 -14 -9 0 -16 -3 -13 -7 2 -4
-17 -7 -42 -6 -26 0 -51 -3 -57 -6 -5 -4 -17 -8 -25 -8 -24 -2 -143 -12 -170
-15 -60 -7 -166 -59 -178 -89 -2 -4 -8 -8 -13 -8 -9 0 -18 -7 -82 -67 -19 -18
-37 -29 -41 -26 -3 4 -6 -1 -6 -10 0 -9 -4 -17 -8 -17 -4 0 -47 -39 -95 -87
-76 -75 -87 -83 -88 -62 -3 140 7 292 21 319 5 9 7 20 4 23 -3 3 4 44 15 92
12 48 21 92 21 100 0 19 -19 22 -77 10z m702 -550 c17 -2 38 -6 48 -10 10 -4
17 -3 17 4 0 12 3 10 43 -24 11 -10 108 -44 139 -49 7 -1 22 -7 33 -13 11 -6
37 -16 58 -22 20 -7 37 -16 37 -21 0 -5 8 -11 18 -14 9 -3 32 -18 49 -34 66
-56 80 -187 31 -302 -24 -56 -99 -140 -124 -140 -8 0 -14 -4 -14 -8 0 -9 -191
-132 -272 -174 -28 -15 -58 -34 -68 -43 -9 -8 -21 -15 -27 -15 -6 0 -13 -4
-15 -8 -1 -5 -15 -15 -29 -23 -15 -8 -51 -27 -80 -43 -30 -16 -55 -32 -57 -37
-2 -5 -7 -9 -12 -9 -4 0 -41 -15 -82 -34 -85 -39 -107 -48 -128 -51 -8 -2 -37
-10 -65 -19 -27 -9 -70 -19 -95 -22 -25 -2 -54 -8 -65 -13 -20 -8 -130 -38
-175 -47 -14 -3 -33 -7 -42 -10 -15 -5 -18 2 -18 43 0 27 5 76 11 108 9 50 14
86 22 167 1 9 4 15 7 13 3 -2 6 13 6 33 -1 20 3 80 8 132 4 52 10 113 11 135
5 57 46 219 56 223 5 2 9 10 9 18 0 8 4 14 9 14 5 0 28 19 52 43 24 24 70 56
102 71 31 16 60 32 63 37 3 5 12 9 21 9 8 0 27 8 41 19 15 10 56 29 92 41 36
13 69 27 74 31 5 4 15 5 22 2 8 -3 14 -1 14 5 0 11 71 31 135 39 22 2 41 6 42
7 1 1 17 0 35 -2 18 -2 47 -5 63 -7z"/>
<path d="M3205 6080 c-32 -17 -74 -43 -94 -58 -20 -16 -65 -43 -101 -61 -76
-37 -94 -48 -138 -79 -17 -13 -32 -21 -32 -17 0 3 -9 1 -19 -5 -11 -5 -21 -22
-23 -37 -3 -24 -12 -30 -83 -55 -44 -15 -89 -28 -101 -28 -11 0 -29 -9 -38
-19 -16 -18 -16 -21 -1 -52 10 -18 26 -57 36 -87 10 -30 24 -61 30 -68 16 -20
14 -97 -3 -124 -9 -14 -19 -36 -23 -50 -10 -31 -91 -175 -122 -215 -54 -69
-152 -169 -203 -208 -30 -22 -61 -47 -68 -54 -7 -7 -18 -13 -24 -13 -6 0 -20
-8 -30 -17 -44 -39 -226 -133 -259 -133 -11 0 -19 -4 -19 -10 0 -5 -13 -10
-29 -10 -17 0 -33 -5 -36 -10 -4 -6 -11 -8 -16 -4 -5 3 -15 2 -22 -3 -12 -10
-87 -27 -167 -39 -46 -7 -359 -9 -364 -3 -2 2 -7 94 -10 203 -4 110 -9 203
-11 207 -6 9 -16 333 -15 462 0 78 4 101 18 115 54 54 162 192 162 207 0 15
-8 16 -67 12 -38 -3 -93 -11 -123 -17 -30 -6 -71 -13 -90 -16 -36 -5 -94 -15
-191 -34 -51 -10 -61 -9 -105 11 -27 13 -51 26 -54 30 -16 23 -120 -17 -120
-44 0 -8 -13 -29 -30 -47 -16 -18 -30 -40 -30 -47 0 -7 -4 -13 -10 -13 -5 0
-23 -19 -40 -42 -51 -72 -64 -89 -94 -121 -16 -17 -35 -46 -43 -64 -7 -18 -19
-33 -26 -33 -15 -1 -57 -35 -57 -47 0 -20 -128 -132 -160 -140 -39 -10 -46
-22 -27 -48 10 -13 19 -16 33 -10 10 4 24 9 29 9 6 1 28 5 50 9 22 4 79 9 126
12 48 3 120 15 160 26 102 28 156 34 173 20 14 -12 14 -100 0 -143 -3 -10 0
-18 6 -18 7 0 8 -6 1 -17 -5 -10 -12 -79 -15 -153 -3 -74 -9 -187 -12 -250 -5
-99 -7 -278 -4 -492 1 -35 -5 -69 -16 -89 -26 -52 -11 -130 39 -198 18 -24 17
-26 -2 -41 -19 -14 -20 -24 -16 -130 2 -63 6 -149 8 -190 2 -41 0 -97 -5 -125
-9 -45 -13 -92 -9 -105 11 -37 14 -160 12 -465 -1 -138 2 -175 13 -193 9 -15
53 -16 61 -2 4 6 10 8 15 5 5 -3 14 4 20 16 7 11 14 18 17 16 2 -3 13 2 23 11
39 35 100 76 100 66 0 -3 17 8 38 24 20 16 51 36 67 45 47 25 85 60 88 82 2
11 8 29 14 40 6 11 18 49 28 85 43 164 46 215 30 480 -9 148 -15 330 -16 534
-2 111 1 150 11 156 45 28 177 30 316 7 54 -10 220 -96 270 -140 28 -25 43
-37 47 -37 6 0 139 -125 221 -206 101 -102 157 -164 185 -204 14 -19 30 -39
38 -43 7 -4 13 -14 13 -21 0 -8 7 -16 15 -20 8 -3 15 -12 15 -21 0 -8 3 -15 8
-15 4 0 18 -18 32 -40 14 -22 27 -40 31 -40 7 0 79 -103 79 -113 0 -4 13 -20
30 -35 17 -16 30 -32 30 -36 0 -8 44 -69 73 -100 9 -11 17 -25 17 -32 0 -6 11
-22 25 -35 13 -13 25 -30 25 -36 0 -7 4 -13 9 -13 5 0 17 -17 26 -37 10 -21
21 -40 24 -43 12 -10 71 -89 71 -95 0 -4 25 -37 55 -73 30 -37 65 -80 78 -96
12 -16 30 -36 40 -45 9 -8 17 -20 17 -26 0 -6 12 -22 28 -36 25 -24 76 -80
113 -125 9 -10 25 -27 35 -36 10 -9 34 -35 53 -57 18 -23 37 -38 42 -35 5 3 8
2 7 -3 -5 -14 104 -123 115 -116 6 3 7 2 4 -4 -4 -6 22 -35 56 -64 111 -98
211 -183 256 -219 59 -47 133 -111 207 -179 93 -86 123 -111 133 -111 4 0 23
-13 42 -29 18 -16 37 -27 41 -25 4 3 8 0 8 -5 0 -6 7 -11 15 -11 8 0 15 -4 15
-8 0 -11 112 -88 123 -84 5 1 6 -2 3 -7 -4 -5 7 -15 24 -23 16 -7 30 -16 30
-19 0 -4 28 -21 63 -38 34 -18 98 -51 142 -74 88 -46 174 -76 238 -83 23 -2
56 -7 72 -9 17 -3 65 -7 108 -8 61 -3 84 1 107 15 17 10 30 22 30 28 0 5 5 10
10 10 6 0 24 14 40 30 16 17 33 30 37 30 4 0 24 15 44 33 19 17 50 43 69 57
56 42 104 79 117 90 7 5 16 10 21 10 5 0 19 11 31 24 13 14 36 30 52 36 16 7
29 16 29 20 0 4 9 10 21 13 12 3 18 10 15 15 -3 5 7 12 22 15 15 4 41 20 59
37 18 16 38 30 44 30 22 0 79 44 75 57 -3 7 1 10 9 7 7 -3 57 17 112 44 141
71 207 102 217 102 10 0 108 44 141 62 11 7 32 18 48 26 15 7 27 17 27 22 0 4
12 11 28 15 54 13 79 58 47 85 -11 9 -25 8 -67 -5 -29 -10 -60 -23 -68 -31 -8
-7 -27 -16 -43 -19 -15 -4 -30 -11 -33 -17 -6 -9 -47 -29 -71 -34 -7 -1 -37
-14 -67 -28 -31 -15 -59 -27 -63 -27 -5 0 -15 -6 -23 -13 -8 -8 -42 -23 -75
-35 -33 -13 -73 -28 -90 -36 -45 -19 -363 -135 -383 -139 -9 -1 -24 -5 -32 -8
-25 -10 -152 -41 -174 -44 -12 -1 -41 -5 -66 -9 -67 -11 -174 -13 -228 -5 -26
5 -81 11 -122 15 -123 11 -263 49 -363 101 -16 8 -34 14 -40 14 -7 0 -36 16
-65 35 -28 20 -62 40 -74 45 -13 5 -45 23 -73 40 -27 16 -57 33 -65 37 -8 3
-17 10 -20 14 -5 7 -51 35 -112 68 -20 11 -38 24 -40 29 -3 8 -55 44 -149 105
-16 11 -29 23 -29 28 0 5 -5 9 -10 9 -17 0 -221 172 -309 261 -25 25 -59 54
-74 64 -15 10 -25 20 -22 23 4 5 -47 73 -85 112 -13 14 -95 107 -157 179 -12
14 -38 46 -58 71 -19 25 -40 50 -45 57 -6 7 -10 15 -10 19 0 4 -12 23 -27 43
-35 44 -45 59 -113 163 -77 118 -79 121 -87 138 -4 8 -12 21 -19 27 -7 7 -22
28 -34 48 -12 19 -25 35 -30 35 -4 0 -10 10 -14 23 -3 13 -28 54 -56 91 -29
37 -58 82 -65 100 -8 18 -21 39 -30 46 -9 8 -26 32 -37 54 -26 51 -100 155
-127 180 -12 11 -21 24 -21 29 0 5 -17 31 -37 56 -21 25 -41 51 -45 56 -35 46
-74 85 -85 85 -7 0 -13 4 -13 9 0 5 -53 63 -117 129 -97 99 -125 121 -155 126
-21 4 -38 10 -38 15 0 4 -12 14 -27 21 l-28 12 45 20 c25 12 53 25 63 30 10 5
22 6 27 3 6 -4 10 -1 10 4 0 6 6 11 13 11 6 0 30 14 51 30 22 17 45 30 51 30
6 0 20 8 31 18 10 10 40 28 66 41 27 12 51 27 54 33 3 5 16 13 27 17 22 8 129
107 298 274 63 63 103 96 111 91 7 -4 10 -4 6 0 -3 4 16 29 42 56 27 26 46 50
43 54 -3 3 -2 6 4 6 6 0 29 24 51 53 22 28 58 71 79 94 21 23 52 59 68 79 17
21 55 64 85 97 30 32 58 66 61 75 3 9 9 27 14 40 4 12 11 22 15 22 17 0 32 65
35 147 4 102 5 113 17 113 5 0 18 19 29 43 10 23 35 70 54 105 50 90 41 100
-50 52z"/>
<path d="M24925 6049 c-27 -4 -75 -10 -105 -14 -84 -11 -221 -46 -243 -63 -7
-5 -43 -19 -82 -31 -72 -23 -257 -110 -263 -123 -2 -5 -9 -8 -15 -8 -7 0 -23
-9 -37 -20 -14 -11 -31 -20 -38 -20 -7 0 -55 -30 -105 -68 -51 -37 -103 -75
-117 -84 -30 -19 -94 -77 -172 -155 l-57 -56 10 39 c19 68 47 156 84 259 19
55 38 111 41 124 3 14 8 29 12 35 3 6 8 16 9 21 23 98 10 119 -89 136 -40 6
-77 16 -83 21 -14 12 -51 10 -62 -4 -24 -30 -35 -114 -15 -111 16 4 15 -5 -3
-23 -13 -14 -15 -14 -15 1 0 13 -3 13 -21 -4 -12 -11 -35 -23 -50 -26 -16 -4
-29 -10 -29 -15 0 -4 -17 -11 -37 -15 -21 -4 -40 -10 -43 -14 -5 -6 -118 -37
-170 -46 -14 -3 -50 -14 -80 -25 -30 -11 -79 -23 -108 -27 -35 -4 -56 -12 -62
-23 -5 -10 -6 -20 -3 -24 3 -3 1 -6 -6 -6 -8 0 -11 -6 -7 -16 3 -8 2 -12 -3
-9 -8 5 -20 -16 -21 -37 0 -4 -14 -38 -29 -75 -16 -36 -28 -77 -26 -90 1 -12
-1 -20 -6 -18 -10 7 -22 -52 -13 -66 8 -14 145 -4 154 12 4 5 11 9 16 8 5 -1
22 3 37 9 16 7 33 12 39 12 6 0 49 18 95 41 85 41 114 45 108 12 -2 -10 -4
-19 -5 -20 -2 -2 -3 -6 -5 -10 -1 -5 -7 -21 -14 -37 -9 -22 -9 -32 1 -44 11
-13 10 -15 -3 -10 -17 7 -39 -29 -60 -97 -6 -22 -18 -52 -26 -67 -8 -16 -11
-28 -7 -28 5 0 3 -5 -3 -11 -6 -6 -9 -17 -7 -24 3 -7 -4 -28 -15 -46 -12 -19
-21 -39 -21 -46 0 -6 -5 -24 -12 -40 -6 -15 -12 -35 -12 -43 -1 -8 -4 -20 -8
-25 -3 -6 -9 -28 -13 -50 -4 -22 -17 -64 -27 -93 -11 -29 -17 -56 -14 -59 3
-3 -1 -17 -8 -32 -8 -14 -26 -73 -41 -131 -14 -58 -29 -114 -31 -125 -3 -11
-7 -29 -9 -40 -4 -26 -12 -67 -24 -130 -15 -76 -6 -478 12 -547 9 -31 13 -70
11 -86 -3 -16 1 -42 7 -58 7 -16 14 -40 16 -54 2 -14 11 -47 19 -75 9 -27 18
-63 21 -80 2 -16 10 -46 17 -65 30 -77 38 -99 35 -103 -2 -2 8 -19 22 -38 14
-19 39 -59 57 -89 36 -63 80 -101 155 -134 67 -30 117 -38 247 -37 89 0 180
11 275 34 41 10 135 60 129 68 -3 5 -2 9 3 8 27 -5 55 4 70 20 9 11 20 18 25
15 4 -3 11 2 14 10 3 9 14 16 25 16 10 0 23 9 29 19 12 23 14 64 3 58 -5 -3
-8 22 -9 55 -1 65 -18 86 -79 100 -90 20 -122 31 -141 49 -11 10 -24 16 -27
12 -4 -3 -7 -1 -7 5 0 7 -4 11 -10 10 -13 -4 -138 119 -145 143 -4 11 -10 17
-15 14 -10 -6 -128 225 -134 263 -18 114 -25 175 -25 222 0 30 -3 102 -6 160
-4 91 -11 344 -16 575 -2 56 7 156 17 198 1 4 2 15 3 25 3 31 144 167 226 217
17 11 37 25 45 32 41 37 64 53 74 53 7 0 18 9 26 20 8 11 20 20 27 20 7 0 21
10 33 22 11 12 20 18 20 14 0 -4 12 1 28 12 35 24 158 82 175 82 7 0 17 4 23
9 12 11 116 46 128 43 4 -2 19 4 32 13 15 9 25 11 29 4 4 -6 11 -7 18 0 17 13
89 22 201 25 95 2 100 1 171 -35 45 -22 90 -55 118 -85 113 -122 147 -162 147
-172 0 -7 4 -12 8 -12 13 0 123 -168 180 -273 16 -28 37 -68 48 -87 10 -19 23
-38 27 -41 5 -3 8 -10 8 -15 -3 -19 33 -72 45 -67 6 2 15 0 19 -6 3 -7 0 -8
-9 -5 -23 9 -20 -13 10 -103 15 -43 27 -90 28 -105 0 -16 4 -28 7 -28 6 0 17
-54 24 -120 2 -19 8 -71 15 -115 6 -44 13 -129 15 -188 2 -60 5 -111 8 -113 3
-3 3 -28 1 -56 -10 -123 -10 -251 2 -262 8 -8 8 -13 -2 -21 -15 -11 -20 -28
-35 -120 -16 -105 -19 -119 -33 -170 -11 -41 -20 -79 -30 -135 -1 -3 -4 -9 -7
-15 -3 -5 -11 -30 -17 -55 -12 -49 -14 -59 -43 -170 -11 -41 -22 -86 -25 -100
-6 -30 -62 -228 -71 -250 -3 -8 -7 -19 -8 -25 -2 -14 -15 -46 -27 -69 -5 -10
-17 -42 -25 -70 -8 -28 -20 -57 -26 -64 -6 -8 -12 -23 -14 -34 -3 -19 -26 -69
-60 -128 -8 -14 -23 -45 -34 -70 -11 -24 -26 -48 -32 -52 -7 -4 -12 -11 -12
-15 0 -18 -40 -103 -48 -103 -4 0 -6 -4 -3 -9 3 -4 -1 -17 -9 -27 -8 -10 -30
-51 -49 -89 -18 -39 -41 -77 -50 -84 -9 -7 -16 -19 -16 -26 0 -26 -142 -202
-202 -250 -14 -11 -33 -32 -42 -47 -10 -15 -27 -30 -38 -34 -12 -3 -17 -11
-14 -20 3 -9 -3 -18 -17 -24 -30 -13 -57 -35 -57 -47 0 -6 -15 -22 -32 -37
-40 -32 -154 -135 -215 -193 -25 -24 -49 -43 -54 -43 -4 0 -13 -9 -19 -20 -6
-11 -15 -20 -20 -20 -6 0 -29 -18 -52 -40 -24 -22 -47 -40 -51 -40 -5 0 -21
-12 -35 -27 -27 -28 -47 -44 -218 -183 -117 -94 -171 -134 -261 -190 -77 -49
-105 -82 -85 -102 10 -10 17 -10 31 -1 11 7 48 24 82 38 35 14 65 29 68 33 11
15 80 62 90 62 6 0 11 5 11 12 0 6 3 8 6 5 7 -7 39 16 101 74 23 21 47 39 53
39 6 0 18 6 25 12 8 7 20 18 27 23 83 64 187 150 223 185 12 11 25 20 30 20 6
0 16 9 23 20 7 11 19 20 26 20 8 0 17 8 20 18 4 9 21 24 39 33 18 9 31 23 31
33 -1 8 2 14 6 11 5 -3 17 6 28 20 11 13 22 22 25 19 3 -3 12 3 19 15 7 12 16
21 20 21 11 0 370 360 397 398 13 18 44 54 70 80 26 26 50 55 54 65 3 9 13 17
22 17 8 0 15 7 15 15 0 8 3 15 8 15 4 0 16 16 26 35 10 19 23 32 28 29 5 -3
13 7 18 23 6 16 26 41 45 57 19 16 35 35 35 43 0 7 5 13 10 13 6 0 10 6 10 14
0 8 8 21 18 28 11 7 25 24 32 37 7 14 21 34 31 44 10 11 25 34 33 51 8 17 27
45 40 61 39 46 40 47 63 85 12 20 33 49 47 65 14 17 26 33 26 37 0 4 6 13 14
21 8 8 21 30 30 51 8 20 20 36 25 36 6 0 11 6 11 14 0 7 7 19 15 26 8 7 13 16
10 20 -3 4 3 14 12 21 9 8 25 33 35 57 10 23 23 42 28 42 6 0 10 6 10 13 0 7
12 30 26 51 14 21 27 44 28 52 1 7 10 22 20 32 9 11 18 29 19 40 0 11 4 19 9
16 4 -2 12 5 18 16 6 11 8 20 6 20 -3 0 6 19 19 43 14 23 30 54 36 70 6 15 15
27 19 27 4 0 13 23 20 50 7 28 16 50 21 50 5 0 8 3 7 8 0 4 16 43 37 87 20 44
38 85 40 90 1 6 7 23 13 38 7 16 12 31 12 33 0 3 10 26 22 52 12 26 21 50 20
55 -1 4 4 23 12 41 8 19 11 37 8 41 -4 3 -1 10 6 14 7 4 15 23 18 42 2 19 8
57 14 84 5 28 12 68 16 90 4 22 9 45 10 50 3 11 11 52 19 103 3 17 2 32 -4 32
-6 0 -6 12 -1 33 12 44 19 105 13 111 -3 2 -7 71 -8 153 -4 163 -12 309 -21
363 -3 19 -6 53 -7 75 -1 22 -6 46 -10 52 -5 7 -10 37 -12 65 -2 29 -4 57 -4
61 -1 5 -7 5 -13 1 -10 -5 -10 -4 -1 6 7 8 8 21 3 34 -4 11 -9 26 -10 31 -1 6
-4 15 -6 20 -1 6 -12 44 -24 85 -23 82 -24 84 -69 182 -17 37 -31 70 -31 73 0
4 -9 20 -21 36 -11 16 -17 29 -12 29 4 0 3 4 -3 8 -6 4 -21 27 -35 52 -13 25
-39 63 -56 84 -18 22 -33 43 -33 47 0 29 -273 293 -337 326 -15 8 -37 23 -48
33 -11 10 -32 21 -47 25 -14 4 -36 16 -49 28 -13 12 -25 21 -26 20 -3 -3 -13
0 -73 20 -25 8 -54 15 -65 15 -11 1 -45 3 -75 5 -30 2 -77 1 -105 -4z"/>
<path d="M7429 5931 c-31 -16 -80 -45 -110 -63 -30 -19 -83 -43 -119 -53 -36
-10 -74 -26 -85 -35 -28 -23 -94 -60 -107 -60 -6 0 -19 -6 -27 -13 -14 -12
-58 -27 -190 -65 -24 -7 -131 -144 -131 -167 0 -6 -9 -16 -20 -23 -11 -7 -20
-18 -20 -26 0 -8 -16 -37 -35 -66 -19 -29 -35 -63 -35 -76 0 -25 34 -51 45
-34 3 5 16 10 28 10 49 0 152 47 294 132 46 27 87 47 93 43 6 -3 18 -22 28
-42 18 -34 18 -37 -1 -92 -10 -31 -20 -60 -21 -66 -2 -5 -7 -18 -11 -29 -5
-12 -3 -21 6 -28 11 -8 11 -9 -3 -5 -12 4 -19 -3 -27 -24 -6 -18 -6 -29 0 -29
5 0 9 -4 9 -10 0 -5 -8 -10 -17 -10 -17 0 -63 -79 -63 -108 0 -13 -35 -121
-55 -167 -7 -16 -19 -51 -26 -77 -7 -27 -17 -48 -21 -48 -4 0 -8 -11 -8 -24 0
-14 -4 -27 -9 -31 -6 -3 -8 -14 -6 -25 2 -11 0 -22 -5 -25 -4 -3 -11 -24 -15
-48 -3 -23 -12 -62 -20 -87 -7 -25 -17 -67 -21 -95 -10 -68 -11 -76 -19 -105
-13 -48 -16 -86 -19 -259 -1 -96 1 -197 6 -225 4 -28 10 -78 13 -111 8 -81 16
-126 29 -157 4 -9 5 -21 2 -27 -3 -5 -2 -11 4 -13 6 -2 11 -18 13 -36 1 -18 8
-32 15 -32 6 0 12 -8 12 -17 0 -16 -2 -16 -11 -3 -9 12 -9 11 -4 -5 4 -11 9
-27 10 -35 4 -26 16 -73 30 -115 8 -22 16 -57 20 -77 3 -20 12 -50 20 -65 8
-15 15 -38 15 -49 0 -12 9 -33 20 -47 11 -14 20 -28 20 -32 0 -4 14 -23 31
-43 57 -65 199 -110 354 -114 113 -3 280 48 380 116 52 36 105 99 106 128 0
12 4 32 8 43 10 25 -7 77 -23 72 -14 -5 -58 17 -75 37 -8 9 -21 16 -30 16 -10
0 -26 8 -37 17 -10 10 -39 29 -64 42 -25 13 -53 31 -62 40 -9 9 -32 27 -52 41
-19 14 -40 37 -47 53 -6 15 -14 27 -18 27 -10 0 -43 118 -47 165 -2 22 -4 59
-5 83 -1 24 -5 45 -9 47 -4 3 -7 27 -6 55 1 27 -1 50 -6 50 -4 0 -3 11 2 24 5
13 7 26 4 28 -6 7 -13 87 -16 193 -1 53 -6 99 -10 101 -5 3 -6 10 -3 15 4 5
-1 12 -9 15 -9 3 -16 11 -16 16 0 6 6 5 15 -2 8 -7 15 -11 15 -9 4 76 11 309
13 450 l2 187 60 62 c33 34 66 69 73 76 7 8 37 30 66 49 30 19 64 45 77 58 31
29 133 97 145 97 5 0 21 8 34 17 14 10 30 18 37 19 7 1 26 12 42 23 16 12 36
21 44 21 8 0 35 11 61 25 26 14 55 27 64 29 10 2 26 6 37 10 75 28 130 43 215
57 65 10 154 -3 220 -33 25 -12 47 -20 49 -19 2 2 7 -1 10 -6 3 -5 33 -24 65
-42 64 -36 88 -55 175 -142 31 -30 64 -58 74 -62 9 -4 20 -15 24 -24 4 -10 22
-31 41 -48 19 -16 48 -50 65 -75 17 -25 36 -48 43 -52 6 -4 17 -21 24 -38 7
-16 16 -30 21 -30 5 0 9 -6 9 -13 0 -7 11 -29 25 -50 14 -20 23 -37 19 -37 -4
0 3 -11 16 -25 13 -14 21 -27 18 -31 -3 -3 8 -40 24 -82 16 -42 32 -95 34
-117 5 -43 11 -80 14 -80 1 0 3 -13 5 -30 1 -16 3 -30 4 -30 5 0 11 -110 11
-205 1 -94 -6 -235 -11 -235 -1 0 -3 -13 -4 -30 -5 -54 -26 -195 -36 -248 -13
-66 -18 -93 -24 -140 -2 -21 -9 -54 -14 -73 -5 -19 -7 -34 -4 -34 3 0 1 -6 -5
-12 -5 -7 -13 -33 -17 -58 -4 -25 -13 -58 -20 -75 -7 -16 -18 -58 -25 -92 -7
-35 -17 -63 -23 -63 -6 0 -8 -3 -4 -6 3 -3 -3 -29 -15 -58 -11 -28 -22 -59
-23 -69 -2 -10 -11 -32 -20 -49 -8 -17 -15 -37 -15 -43 0 -19 -41 -108 -59
-129 -9 -10 -15 -21 -14 -25 1 -3 -5 -21 -14 -38 -8 -18 -13 -40 -9 -48 3 -9
2 -14 -2 -11 -7 4 -45 -48 -47 -64 -2 -14 -29 -86 -34 -90 -6 -5 -20 -29 -38
-65 -10 -20 -33 -67 -58 -115 -56 -111 -75 -153 -75 -166 0 -8 -7 -17 -15 -20
-8 -4 -15 -17 -15 -29 0 -13 -11 -37 -25 -53 -14 -17 -25 -33 -25 -37 0 -17
-111 -202 -134 -224 -14 -14 -26 -28 -26 -32 0 -12 -53 -89 -62 -89 -4 0 -8
-5 -8 -12 0 -7 -9 -21 -20 -33 -43 -45 -90 -103 -90 -111 0 -5 -20 -30 -45
-56 -25 -26 -45 -52 -45 -58 0 -5 -4 -10 -8 -10 -5 0 -23 -20 -42 -45 -18 -25
-42 -47 -52 -51 -10 -3 -18 -14 -18 -24 0 -11 -10 -24 -21 -31 -17 -9 -19 -13
-8 -20 11 -7 9 -9 -6 -9 -21 0 -113 -88 -134 -127 -6 -13 -16 -23 -22 -23 -13
0 -48 -27 -104 -79 -22 -20 -55 -43 -72 -50 -18 -7 -33 -17 -33 -21 0 -5 -24
-23 -52 -40 -81 -47 -89 -53 -118 -82 -15 -16 -35 -28 -44 -28 -9 0 -16 -4
-16 -9 0 -5 -9 -13 -21 -16 -11 -4 -25 -17 -31 -30 -9 -20 -38 -36 -73 -39 -5
-1 -38 -18 -71 -38 -34 -21 -66 -38 -72 -38 -6 0 -12 -4 -14 -8 -3 -9 -93 -72
-102 -72 -2 0 -40 -22 -84 -49 -44 -27 -97 -54 -118 -61 -22 -7 -41 -16 -44
-20 -3 -4 -47 -24 -97 -45 -51 -21 -93 -41 -93 -45 0 -13 54 -19 68 -8 6 6 12
7 12 4 0 -4 10 -1 23 6 12 6 27 13 34 14 18 3 87 26 98 33 6 3 15 6 20 7 50 9
66 14 87 25 12 7 23 11 23 10 0 -2 18 5 40 14 22 10 51 23 65 28 14 6 32 16
40 23 14 10 85 38 102 39 4 0 13 6 20 13 6 6 18 12 25 12 7 0 13 4 13 8 0 4
14 13 31 19 17 7 28 16 25 21 -3 5 7 9 22 9 17 0 61 22 115 59 48 32 92 59 98
59 5 0 13 5 17 10 4 6 23 19 42 29 19 11 58 37 85 58 28 20 67 50 88 65 21 16
47 36 57 45 10 9 29 22 41 29 22 11 61 45 133 114 17 17 67 62 111 100 106 94
105 92 105 104 0 6 6 11 13 11 8 0 20 11 27 25 7 13 21 27 31 30 9 3 29 20 42
38 14 18 41 50 60 72 20 22 33 43 30 47 -2 5 0 7 5 6 13 -4 129 117 148 154 8
15 18 28 23 28 4 0 22 21 40 46 18 25 43 56 56 70 12 13 35 43 51 66 16 23 41
55 57 72 15 17 27 36 27 43 0 7 16 31 36 53 20 22 34 40 30 40 -3 0 2 8 12 18
32 35 50 60 56 80 4 10 15 27 26 37 11 10 20 24 20 32 0 7 4 13 9 13 5 0 33
41 63 91 29 49 63 107 75 127 37 62 55 95 80 142 13 25 41 78 63 119 22 41 38
76 36 79 -3 2 6 19 19 37 14 17 25 35 25 40 0 4 24 58 54 119 29 61 66 143 81
181 16 39 34 79 42 90 7 11 13 29 13 40 0 11 9 31 20 45 11 14 20 28 20 32 0
4 5 19 12 35 6 15 17 46 24 68 6 22 30 90 52 150 23 61 43 121 46 135 3 14 14
57 25 95 12 39 23 93 25 120 2 28 12 129 21 225 17 187 13 431 -10 545 -4 21
-9 48 -10 60 -4 53 -19 126 -26 131 -5 3 -7 10 -4 15 19 30 -148 396 -200 439
-8 7 -15 19 -15 27 0 7 -7 16 -15 19 -8 4 -15 10 -15 15 0 4 -15 29 -32 54
-18 25 -40 58 -48 73 -13 23 -51 61 -184 181 -50 44 -89 71 -97 65 -5 -3 -9 0
-9 5 0 11 -77 53 -120 66 -14 4 -38 13 -55 20 -16 7 -39 16 -50 20 -18 7 -105
15 -195 18 -77 3 -210 -14 -305 -39 -55 -14 -114 -29 -130 -33 -41 -11 -75
-30 -75 -42 0 -6 -5 -7 -11 -3 -6 3 -24 -3 -40 -15 -15 -11 -30 -21 -33 -21
-2 0 -32 -18 -65 -40 -33 -22 -65 -40 -71 -40 -5 0 -10 -3 -10 -8 0 -4 -13
-13 -30 -20 -16 -7 -44 -27 -61 -43 -17 -16 -37 -29 -44 -29 -6 0 -19 -8 -28
-17 -9 -10 -33 -27 -54 -38 -21 -11 -51 -31 -66 -45 -41 -36 -108 -80 -122
-80 -6 0 -18 -11 -25 -25 -7 -14 -17 -26 -22 -26 -4 -1 -12 -2 -16 -3 -4 0
-26 -15 -47 -32 -22 -17 -47 -33 -56 -36 -14 -5 -13 -1 3 30 10 21 17 44 15
52 -2 9 2 22 10 29 8 7 12 20 9 28 -3 8 -1 11 4 8 5 -3 15 7 21 22 6 15 17 41
25 56 8 16 14 33 14 39 0 6 15 42 34 82 19 39 48 107 64 150 25 70 27 84 18
118 -14 44 -72 107 -101 107 -11 1 -45 -12 -76 -28z"/>
</g>
</svg>
