<?xml version="1.0" standalone="no"?>
<!DOCTYPE svg PUBLIC "-//W3C//DTD SVG 20010904//EN"
 "http://www.w3.org/TR/2001/REC-SVG-20010904/DTD/svg10.dtd">
<svg version="1.0" xmlns="http://www.w3.org/2000/svg"
 width="500.000000pt" height="500.000000pt" viewBox="0 0 500.000000 500.000000"
 preserveAspectRatio="xMidYMid meet">
<metadata>
Created by potrace 1.16, written by Peter Selinger 2001-2019
</metadata>
<g transform="translate(0.000000,500.000000) scale(0.100000,-0.100000)"
fill="#000000" stroke="none">
<path d="M2427 4318 c4 -7 -12 -12 -30 -9 -8 1 -123 -60 -167 -88 -14 -9 -38
-23 -55 -31 -16 -8 -32 -17 -35 -20 -3 -3 -34 -20 -70 -39 -36 -19 -84 -47
-108 -62 -24 -16 -49 -29 -57 -29 -21 0 -103 -29 -155 -55 -68 -33 -116 -62
-215 -127 -49 -33 -95 -61 -102 -61 -7 0 -10 -4 -7 -8 2 -4 -22 -28 -53 -52
-71 -55 -154 -142 -254 -267 -161 -200 -254 -383 -294 -576 -33 -159 -45 -271
-45 -424 0 -186 12 -285 52 -440 46 -179 103 -305 209 -462 33 -48 59 -92 59
-97 0 -12 -113 -184 -169 -256 -153 -196 -171 -298 -62 -334 41 -13 288 -15
397 -2 43 6 153 15 244 21 91 6 206 15 255 20 50 6 148 10 218 11 l128 2 47
-48 c60 -61 145 -118 205 -139 126 -43 275 8 419 142 84 78 106 52 107 -125 1
-45 6 -104 12 -132 13 -64 33 -71 190 -71 108 0 120 2 138 22 32 33 44 84 37
149 -3 33 -9 87 -13 121 l-6 61 99 -7 c54 -3 144 -10 199 -16 266 -24 385 -32
439 -28 54 4 62 8 99 47 37 41 39 45 35 95 -4 46 -15 67 -91 179 -48 70 -87
131 -87 136 0 5 -4 11 -8 13 -5 2 -24 30 -44 63 l-35 61 54 84 c131 204 220
435 258 667 22 137 23 410 2 518 -36 183 -78 322 -97 317 -7 -2 -9 5 -5 19 4
13 3 19 -3 16 -11 -7 -47 67 -39 80 3 4 -1 19 -9 33 -7 14 -13 21 -14 17 0 -5
5 -17 10 -28 6 -10 8 -19 6 -19 -6 0 -36 55 -36 65 0 3 5 3 12 -1 7 -4 8 -3 4
5 -4 6 -11 9 -16 6 -4 -3 -26 26 -49 64 -103 173 -227 317 -384 442 -149 120
-387 252 -502 281 -55 13 -88 35 -78 51 3 6 1 7 -5 3 -21 -13 -367 178 -356
196 4 6 2 8 -4 4 -6 -3 -34 5 -64 19 -29 14 -42 23 -30 21 13 -3 21 -2 17 2
-9 10 -104 9 -98 0z m114 -92 c41 -24 137 -78 214 -120 77 -42 148 -82 157
-90 15 -11 17 -41 18 -295 l2 -283 -61 -36 c-34 -21 -115 -70 -180 -109 -66
-40 -123 -73 -128 -73 -5 0 -30 -13 -56 -30 l-47 -29 -57 35 c-32 20 -94 57
-138 84 -44 26 -122 73 -172 105 l-93 56 -2 245 c-1 134 -2 261 -2 281 -1 41
-10 34 214 158 58 32 137 77 175 101 39 23 73 43 76 43 4 1 40 -19 80 -43z
m-623 -313 c-3 -54 -4 -56 -38 -68 -51 -18 -220 -117 -308 -182 -284 -207
-518 -577 -598 -943 -15 -67 -19 -127 -19 -285 0 -193 1 -204 32 -321 34 -131
93 -266 174 -403 29 -47 54 -89 56 -93 2 -5 0 -8 -4 -8 -12 0 -109 149 -155
240 -21 41 -42 73 -46 72 -4 -2 -12 -8 -18 -13 -18 -15 -44 1 -50 30 -4 14
-10 31 -14 36 -16 20 -50 153 -66 254 -22 142 -15 416 15 546 50 220 101 342
221 530 137 214 348 424 530 527 138 78 256 136 283 137 4 1 7 -24 5 -56z
m1180 27 c66 -27 172 -80 290 -146 19 -11 52 -36 75 -57 23 -21 68 -59 99 -84
77 -61 288 -309 288 -338 0 -4 17 -35 38 -69 151 -248 217 -496 216 -811 -1
-145 -5 -187 -28 -287 -31 -141 -47 -187 -98 -298 l-39 -85 -20 24 c-11 13
-18 30 -15 38 10 25 -10 13 -28 -18 -10 -16 -15 -37 -12 -45 3 -8 2 -13 -3
-10 -5 3 -24 -20 -44 -52 -32 -52 -87 -115 -87 -99 0 3 20 35 46 71 163 234
260 618 224 896 -22 178 -65 350 -107 434 -8 16 -16 39 -18 52 -1 12 -10 30
-19 40 -9 9 -15 23 -12 31 4 9 2 11 -6 7 -8 -5 -9 -1 -4 12 4 10 4 15 0 11 -9
-9 -54 65 -47 77 4 5 1 6 -4 3 -13 -8 -46 40 -38 54 4 5 1 8 -7 7 -7 -2 -12 5
-12 14 1 10 -2 16 -6 13 -4 -3 -27 20 -50 51 -117 151 -345 331 -559 440 -51
26 -94 52 -96 58 -10 33 -12 96 -3 96 5 0 44 -14 86 -30z m55 -521 c11 -38 19
-47 60 -67 26 -12 47 -26 47 -31 0 -5 -20 -14 -44 -20 -51 -13 -54 -16 -71
-80 -6 -25 -15 -46 -20 -46 -5 0 -14 21 -20 46 -16 62 -19 66 -59 73 -65 12
-67 45 -3 61 28 7 57 39 57 62 0 6 5 24 10 39 13 34 26 23 43 -37z m-1204 -69
c49 -28 114 -62 144 -75 51 -24 55 -28 59 -68 3 -23 4 -120 3 -216 l-3 -175
-39 -19 c-21 -11 -88 -48 -150 -83 -61 -35 -113 -64 -116 -64 -6 0 -183 96
-243 132 l-52 31 -7 123 c-4 68 -4 165 0 216 l7 93 147 77 c80 42 149 77 154
77 4 1 47 -22 96 -49z m854 -178 c13 -43 17 -47 56 -57 54 -13 54 -27 -1 -40
-39 -10 -43 -14 -57 -58 -8 -26 -18 -47 -22 -47 -4 0 -14 21 -21 47 -13 45
-15 47 -61 58 -58 12 -62 27 -10 40 54 14 59 19 72 70 14 54 26 51 44 -13z
m-133 -226 c0 -2 5 -27 10 -56 11 -60 24 -80 52 -80 10 0 33 -7 50 -16 29 -15
30 -17 12 -27 -10 -6 -35 -13 -54 -17 -37 -6 -50 -24 -70 -97 -6 -24 -15 -43
-20 -43 -4 0 -11 19 -15 43 -11 71 -14 76 -58 88 -23 6 -48 16 -55 21 -18 15
3 36 44 44 42 8 48 15 68 87 9 31 21 57 26 57 6 0 10 -2 10 -4z m750 -98 c15
-63 22 -72 69 -87 49 -15 49 -32 0 -46 -51 -15 -56 -21 -63 -70 -7 -41 -20
-64 -32 -52 -3 2 -10 26 -17 53 -11 45 -15 48 -62 64 -58 20 -64 40 -15 52 43
11 66 37 80 89 14 51 27 49 40 -3z m-320 -21 c10 -4 8 -6 -7 -6 -40 -2 -70
-22 -98 -67 -15 -24 -36 -46 -46 -49 -49 -16 -167 -127 -222 -210 -27 -40 -36
-85 -16 -85 5 0 8 -4 4 -9 -8 -14 23 -6 81 18 83 35 225 61 332 61 95 0 99 -1
110 -24 13 -28 19 -26 -133 -50 -73 -12 -134 -30 -173 -52 -2 -1 2 -11 9 -22
11 -18 10 -24 -5 -41 -11 -12 -25 -21 -32 -21 -7 0 -46 -27 -87 -60 -73 -58
-114 -106 -103 -117 3 -4 0 -13 -7 -22 -6 -8 23 13 67 47 92 73 233 144 406
206 175 62 198 73 258 117 28 22 53 37 53 34 1 -3 2 -9 3 -14 0 -5 5 -13 10
-18 5 -5 6 -3 2 5 -4 6 -2 12 3 12 6 0 11 -6 11 -14 0 -8 5 -18 12 -22 6 -4 8
-3 5 3 -4 6 0 14 9 17 8 3 12 2 9 -4 -3 -6 2 -9 12 -7 10 1 18 -2 18 -8 0 -5
-6 -9 -12 -9 -7 1 -11 -2 -8 -6 7 -12 -97 -85 -170 -120 -33 -16 -134 -49
-225 -75 -159 -45 -315 -110 -342 -142 -12 -14 -8 -15 35 -9 30 5 47 4 47 -3
0 -6 7 -8 15 -5 8 3 38 -5 67 -19 29 -13 64 -28 78 -32 13 -4 29 -13 35 -19 9
-8 -28 -11 -144 -11 -135 0 -166 -4 -231 -24 -99 -30 -167 -70 -222 -129 l-46
-49 -42 49 c-104 122 -302 176 -539 149 -52 -6 -96 -9 -98 -7 -2 1 9 9 25 17
15 8 33 20 40 27 7 6 19 12 25 12 22 0 147 52 147 61 0 5 14 9 30 9 21 0 30
-5 31 -17 1 -17 2 -17 6 0 5 18 23 24 23 7 0 -5 6 -10 13 -10 6 0 24 -7 40
-14 15 -9 27 -10 27 -5 0 6 6 7 13 4 41 -21 -40 33 -99 66 -69 37 -127 55
-357 108 -49 11 -122 36 -162 56 -95 47 -132 86 -72 76 4 -1 3 8 -3 19 -6 11
-8 20 -4 20 3 0 47 -18 96 -40 50 -23 138 -52 197 -66 58 -14 158 -42 221 -62
123 -39 174 -48 164 -29 -3 7 1 4 8 -5 10 -11 19 -14 29 -7 11 7 4 18 -33 53
-44 41 -93 70 -160 95 -16 6 -28 17 -28 24 0 24 -33 45 -90 59 -39 9 -56 18
-58 32 -4 16 0 18 35 12 53 -10 215 -88 289 -142 35 -24 67 -44 72 -44 5 0 22
-10 38 -22 15 -13 25 -17 21 -11 -4 7 1 14 12 18 11 3 25 13 33 23 11 15 11
15 -3 5 -12 -10 -19 -10 -33 0 -24 18 -17 51 12 55 18 3 25 -3 33 -27 11 -32
27 -39 46 -20 8 8 13 7 18 -2 6 -8 4 -10 -5 -4 -9 6 -11 4 -5 -5 6 -10 11 -9
22 5 11 16 15 17 26 5 10 -10 9 -11 -3 -5 -9 5 -12 4 -7 -1 11 -12 77 -13 77
-1 0 5 7 6 16 3 10 -4 13 -2 8 6 -5 7 1 9 19 6 33 -6 40 2 67 74 34 92 112
200 220 308 95 94 207 171 220 150 3 -4 12 -10 20 -13z m-854 -87 c9 -55 22
-69 74 -78 62 -11 60 -34 -5 -47 -47 -10 -51 -13 -63 -53 -8 -23 -17 -42 -22
-42 -4 0 -13 20 -19 44 -10 40 -14 44 -48 50 -91 16 -95 28 -19 50 49 14 55
20 61 49 16 80 31 90 41 27z m-895 -62 c13 -50 16 -52 64 -67 28 -9 49 -20 48
-26 -1 -5 -20 -15 -42 -20 -51 -13 -63 -25 -76 -77 -14 -58 -32 -59 -40 -4 -8
50 -13 56 -65 76 -19 7 -39 17 -45 22 -13 11 12 28 43 28 32 0 59 32 67 79 9
56 29 52 46 -11z m1114 -115 c10 -60 11 -61 70 -78 30 -9 55 -20 55 -25 0 -4
-23 -13 -50 -20 -54 -13 -63 -23 -75 -85 -6 -37 -8 -38 -21 -20 -8 10 -14 29
-14 41 0 27 -39 60 -81 69 -41 9 -32 27 21 42 50 15 56 21 64 74 8 49 23 50
31 2z m-260 -665 c86 -28 162 -76 201 -127 l34 -44 0 -233 c0 -129 -3 -234 -7
-234 -5 0 -17 13 -27 29 -27 39 -138 110 -217 138 -105 36 -240 49 -370 34
-140 -16 -222 -36 -432 -106 -93 -30 -170 -55 -173 -55 -2 0 17 33 43 73 70
108 139 219 213 342 65 109 67 110 121 128 259 86 464 104 614 55z m910 5 c44
-8 115 -25 158 -39 43 -13 88 -24 100 -24 18 0 35 -22 86 -112 35 -62 75 -127
88 -145 13 -18 46 -72 74 -120 28 -48 59 -97 70 -109 18 -19 26 -44 13 -44 -8
0 -150 43 -269 81 -121 38 -171 49 -295 64 -246 29 -501 -38 -609 -160 -17
-19 -33 -35 -36 -35 -3 0 -5 108 -5 239 l0 239 26 32 c61 72 191 136 304 149
83 9 193 4 295 -16z m461 -173 c7 0 28 -30 46 -67 18 -38 52 -98 76 -136 24
-37 40 -72 37 -77 -4 -6 -2 -9 4 -8 6 2 20 -11 31 -27 l19 -31 -27 1 c-23 1
-42 23 -140 171 -62 93 -116 173 -119 178 -4 5 8 6 27 3 18 -4 38 -7 46 -7z
m-1411 -355 c96 -34 215 -109 215 -137 0 -10 -47 -11 -52 0 -13 33 -157 102
-211 102 -26 0 -12 -16 19 -24 33 -9 184 -95 184 -105 0 -4 -8 -15 -19 -25
-15 -14 -20 -14 -30 -3 -20 25 -131 69 -209 83 -169 30 -415 5 -822 -84 -41
-9 -77 -16 -80 -17 -3 0 -11 -4 -17 -8 -18 -11 -16 -3 6 42 25 48 37 57 90 65
24 4 99 24 165 46 262 84 352 100 536 96 127 -3 155 -7 225 -31z m1125 0 c58
-14 172 -46 253 -71 82 -24 161 -44 176 -44 21 0 32 -9 49 -39 39 -69 40 -68
-108 -31 -111 28 -358 69 -495 81 -210 20 -338 1 -464 -67 -49 -27 -66 -32
-77 -23 -8 6 -14 17 -14 23 1 16 84 70 165 106 60 27 64 30 31 25 -66 -11
-140 -43 -183 -80 -26 -22 -47 -33 -57 -29 -24 9 -20 18 27 56 72 60 178 104
287 119 105 15 296 3 410 -26z m-1265 -160 c33 -3 74 -7 90 -11 41 -9 145 -62
145 -74 0 -15 -11 -12 -56 14 -62 35 -215 40 -479 15 -115 -11 -240 -22 -278
-24 -37 -2 -71 -6 -75 -8 -23 -14 -84 -18 -170 -12 -116 9 -99 20 46 28 74 5
102 3 102 -5 0 -9 3 -9 12 0 7 7 20 12 30 12 10 0 18 4 18 8 0 19 402 72 495
66 33 -3 87 -7 120 -9z m1056 -8 c4 -5 15 -4 29 3 15 8 40 10 69 6 25 -4 107
-13 181 -21 261 -28 454 -55 464 -65 7 -7 -6 -10 -39 -11 -28 -1 -61 -3 -75
-5 -14 -1 -86 4 -160 12 -212 22 -240 26 -240 35 0 4 -25 11 -55 14 -30 4 -53
11 -50 15 7 12 -39 -1 -46 -13 -9 -13 -31 2 -23 15 5 8 1 9 -10 5 -44 -17 -67
-18 -83 -6 -12 10 -15 10 -9 2 5 -10 -8 -13 -56 -13 -35 0 -90 -7 -123 -15
-72 -17 -125 -19 -125 -4 0 6 7 8 16 5 8 -3 13 -2 10 3 -3 5 16 16 43 25 60
19 64 20 55 4 -4 -7 1 -5 12 4 30 26 199 31 215 5z m-2046 -82 c-38 -49 -27
-59 59 -51 40 4 75 4 78 1 3 -3 3 -17 0 -30 l-4 -25 -135 0 -134 0 37 70 36
70 45 0 44 0 -26 -35z m2949 -12 c14 -27 34 -58 42 -70 l16 -23 -141 0 -141 0
0 25 c0 24 2 24 91 27 l90 3 -36 43 -37 42 45 0 c42 0 45 -2 71 -47z m-844
-10 c3 -2 7 -59 10 -126 4 -94 9 -128 23 -147 10 -15 17 -43 17 -70 0 -25 -4
-40 -8 -34 -4 6 -29 17 -56 24 -43 12 -52 11 -82 -5 -19 -10 -34 -22 -34 -27
0 -5 5 -6 11 -2 16 9 2 -33 -23 -71 l-19 -30 3 37 c2 20 0 34 -4 32 -4 -3 -8
32 -8 78 1 82 1 83 17 53 8 -16 17 -31 18 -33 2 -2 18 6 36 17 42 26 54 26 90
0 29 -20 40 -14 17 9 -8 8 -13 51 -14 124 -1 137 -6 143 -106 134 -38 -3 -68
-3 -68 1 0 5 -3 17 -6 28 -5 19 -1 20 88 16 51 -1 95 -5 98 -8z m-970 -19 c27
-11 46 -27 57 -48 39 -78 122 -133 219 -143 97 -10 197 42 249 131 29 50 59
66 138 73 48 5 57 3 57 -11 0 -12 -10 -16 -41 -16 -22 0 -60 -5 -83 -11 -37
-9 -47 -17 -62 -51 -21 -48 -56 -78 -128 -112 -104 -49 -172 -43 -278 25 -34
22 -54 44 -70 79 -15 32 -33 53 -51 61 -36 15 -469 6 -702 -16 -179 -16 -262
-18 -230 -6 53 21 497 58 717 60 133 1 176 -2 208 -15z"/>
<path d="M2278 4122 c-81 -43 -150 -81 -155 -86 -9 -10 62 -5 215 15 l102 13
0 68 c0 37 -3 68 -7 67 -5 0 -74 -35 -155 -77z"/>
<path d="M2490 4131 l0 -58 43 -7 c60 -10 271 -33 275 -31 2 2 -29 19 -68 38
-63 32 -70 34 -70 17 0 -10 -9 -22 -20 -25 -27 -9 -70 19 -70 45 0 26 30 26
37 0 6 -21 24 -23 31 -2 3 10 -125 82 -148 82 -6 0 -10 -25 -10 -59z"/>
<path d="M2290 4005 c-52 -7 -130 -16 -172 -20 -58 -5 -78 -10 -78 -21 0 -8
16 -47 37 -87 20 -39 53 -114 73 -166 l37 -94 21 30 c51 72 202 348 202 369 0
5 -3 5 -120 -11z"/>
<path d="M2530 4012 c0 -4 210 -382 217 -391 7 -10 19 16 54 117 20 59 48 136
62 172 l25 66 -179 20 c-98 11 -179 18 -179 16z"/>
<path d="M2412 3928 c-27 -46 -74 -128 -106 -183 -32 -55 -67 -115 -78 -132
l-20 -33 256 0 255 0 -61 118 c-56 106 -183 312 -193 312 -2 0 -26 -37 -53
-82z m116 -85 c21 -29 14 -63 -22 -99 -19 -19 -42 -34 -51 -34 -22 0 -16 -34
8 -38 9 -2 30 6 46 17 36 26 41 26 41 3 0 -53 -106 -77 -142 -32 -23 28 -23
49 0 57 21 8 92 79 92 93 0 13 -38 32 -50 25 -6 -3 -10 -15 -10 -26 0 -14 -6
-19 -17 -17 -28 5 -23 50 7 65 30 16 80 9 98 -14z"/>
<path d="M2028 3685 l3 -207 27 17 c52 34 94 67 99 81 6 16 -92 265 -116 295
-15 19 -16 5 -13 -186z"/>
<path d="M2872 3823 c-31 -73 -82 -223 -82 -240 0 -16 58 -75 93 -94 16 -9 17
3 17 186 0 107 -2 195 -4 195 -2 0 -13 -21 -24 -47z"/>
<path d="M2220 3531 c0 -5 29 -45 64 -90 35 -44 77 -101 92 -126 16 -25 41
-61 55 -80 l26 -34 20 22 c18 20 139 177 205 266 15 20 27 39 28 44 0 4 -110
7 -245 7 -140 0 -245 -4 -245 -9z"/>
<path d="M2109 3483 l-56 -37 73 -45 c41 -25 112 -70 159 -100 48 -29 88 -51
90 -50 7 8 -191 269 -204 269 -3 0 -31 -17 -62 -37z"/>
<path d="M2709 3468 c-60 -70 -171 -219 -167 -224 4 -4 244 140 268 160 8 8
27 20 43 28 l27 14 -55 37 c-30 20 -59 37 -63 37 -5 0 -28 -24 -53 -52z"/>
<path d="M1722 3301 c-56 -29 -89 -52 -82 -56 6 -4 85 -10 174 -12 127 -5 165
-3 171 7 5 8 2 18 -8 25 -24 17 -21 28 4 15 45 -24 25 -2 -29 33 -78 51 -111
49 -230 -12z"/>
<path d="M1560 3041 c0 -103 2 -190 6 -193 3 -3 26 1 52 9 61 19 350 30 389
15 16 -6 48 -14 73 -17 l45 -7 -1 61 c-2 63 -3 65 -29 55 -35 -14 -47 3 -40
59 4 28 11 56 15 61 16 16 39 -3 43 -36 2 -18 4 12 5 67 1 93 0 99 -15 80 -25
-32 -91 -176 -104 -230 -7 -28 -17 -54 -21 -60 -16 -18 -8 42 21 160 16 66 29
121 28 121 -1 1 -82 4 -181 6 l-179 5 6 -76 c3 -42 14 -101 26 -131 25 -65 26
-90 6 -90 -9 0 -15 9 -15 23 0 30 -52 191 -81 249 -44 90 -49 76 -49 -131z
m336 68 c17 -19 18 -22 2 -49 -14 -25 -14 -31 -2 -41 8 -6 14 -17 14 -25 0
-18 -40 -44 -69 -44 -45 0 -81 53 -46 66 8 4 15 12 15 19 0 7 -7 18 -15 25 -8
7 -15 21 -15 31 0 40 84 54 116 18z"/>
<path d="M1688 2837 c-37 -7 -70 -16 -73 -19 -6 -6 120 -79 187 -109 39 -17
81 -5 188 53 l95 51 -60 14 c-84 20 -257 25 -337 10z"/>
</g>
</svg>
